<svg width="33" height="37" viewBox="0 0 33 37" fill="none" xmlns="http://www.w3.org/2000/svg">
<path d="M21.5704 22.627C21.3441 22.553 19.9139 21.9083 20.8076 19.1917H20.7948C23.1244 16.7924 24.9046 12.9315 24.9046 9.13051C24.9046 3.28593 21.0182 0.222046 16.5014 0.222046C11.9817 0.222046 8.1166 3.28451 8.1166 9.13051C8.1166 12.9472 9.88691 16.8237 12.2307 19.2173C13.1443 21.6137 11.5106 22.5032 11.1691 22.627C6.43879 24.3389 0.888794 27.4569 0.888794 30.535V31.6891C0.888794 35.8829 9.02026 36.8364 16.5455 36.8364C24.0821 36.8364 32.1111 35.8829 32.1111 31.6891V30.535C32.1111 27.3644 26.5341 24.2706 21.5704 22.627ZM13.7207 35.0205C13.7207 31.3931 16.0303 26.4963 16.0303 26.4963L14.4322 25.2426C14.4322 24.0444 16.4999 22.7906 16.4999 22.7906C16.4999 22.7906 18.562 24.0643 18.562 25.2426L16.9696 26.4963C16.9696 26.4963 19.2792 31.3746 19.2792 35.0604C19.2792 35.6382 13.7207 35.5044 13.7207 35.0205Z" fill="#4BAF4F"/>
</svg>
