<svg width="22" height="20" viewBox="0 0 22 20" fill="none" xmlns="http://www.w3.org/2000/svg">
<path d="M0.333008 2.00008C0.333008 1.64646 0.473484 1.30732 0.723532 1.05727C0.973581 0.807224 1.31272 0.666748 1.66634 0.666748H20.333C20.6866 0.666748 21.0258 0.807224 21.2758 1.05727C21.5259 1.30732 21.6663 1.64646 21.6663 2.00008C21.6663 2.3537 21.5259 2.69284 21.2758 2.94289C21.0258 3.19294 20.6866 3.33341 20.333 3.33341H1.66634C1.31272 3.33341 0.973581 3.19294 0.723532 2.94289C0.473484 2.69284 0.333008 2.3537 0.333008 2.00008ZM0.333008 10.0001C0.333008 9.64646 0.473484 9.30732 0.723532 9.05727C0.973581 8.80722 1.31272 8.66675 1.66634 8.66675H20.333C20.6866 8.66675 21.0258 8.80722 21.2758 9.05727C21.5259 9.30732 21.6663 9.64646 21.6663 10.0001C21.6663 10.3537 21.5259 10.6928 21.2758 10.9429C21.0258 11.1929 20.6866 11.3334 20.333 11.3334H1.66634C1.31272 11.3334 0.973581 11.1929 0.723532 10.9429C0.473484 10.6928 0.333008 10.3537 0.333008 10.0001ZM1.66634 16.6667C1.31272 16.6667 0.973581 16.8072 0.723532 17.0573C0.473484 17.3073 0.333008 17.6465 0.333008 18.0001C0.333008 18.3537 0.473484 18.6928 0.723532 18.9429C0.973581 19.1929 1.31272 19.3334 1.66634 19.3334H20.333C20.6866 19.3334 21.0258 19.1929 21.2758 18.9429C21.5259 18.6928 21.6663 18.3537 21.6663 18.0001C21.6663 17.6465 21.5259 17.3073 21.2758 17.0573C21.0258 16.8072 20.6866 16.6667 20.333 16.6667H1.66634Z" fill="#333333"/>
</svg>
