<svg width="67" height="51" viewBox="0 0 67 51" fill="none" xmlns="http://www.w3.org/2000/svg">
<path fill-rule="evenodd" clip-rule="evenodd" d="M64.8335 2.44311C65.7647 3.42541 66.2878 4.7575 66.2878 6.14647C66.2878 7.53543 65.7647 8.86753 64.8335 9.84982L27.6028 49.1113C27.1108 49.6303 26.5266 50.042 25.8837 50.3228C25.2408 50.6037 24.5518 50.7483 23.8559 50.7483C23.16 50.7483 22.4709 50.6037 21.828 50.3228C21.1851 50.042 20.601 49.6303 20.109 49.1113L1.61115 29.608C1.13673 29.1248 0.758322 28.5468 0.497997 27.9078C0.237672 27.2687 0.100645 26.5813 0.0949141 25.8858C0.0891829 25.1903 0.214862 24.5006 0.464616 23.8568C0.714371 23.2131 1.0832 22.6282 1.54958 22.1364C2.01597 21.6446 2.57056 21.2556 3.18101 20.9922C3.79146 20.7289 4.44554 20.5963 5.10508 20.6024C5.76462 20.6084 6.41641 20.7529 7.02243 21.0275C7.62844 21.302 8.17655 21.701 8.63475 22.2013L23.8542 38.2509L57.8066 2.44311C58.2679 1.95635 58.8156 1.57021 59.4185 1.30676C60.0213 1.04331 60.6675 0.907715 61.3201 0.907715C61.9726 0.907715 62.6188 1.04331 63.2217 1.30676C63.8245 1.57021 64.3722 1.95635 64.8335 2.44311Z" fill="white"/>
</svg>
