<svg width="32" height="32" viewBox="0 0 32 32" fill="none" xmlns="http://www.w3.org/2000/svg">
<path d="M16 19.327L4.35551 30.9715C3.91983 31.4072 3.36534 31.625 2.69201 31.625C2.01869 31.625 1.46419 31.4072 1.02852 30.9715C0.592838 30.5358 0.375 29.9813 0.375 29.308C0.375 28.6347 0.592838 28.0802 1.02852 27.6445L12.673 16L1.02852 4.35551C0.592838 3.91983 0.375 3.36534 0.375 2.69201C0.375 2.01869 0.592838 1.46419 1.02852 1.02852C1.46419 0.592838 2.01869 0.375 2.69201 0.375C3.36534 0.375 3.91983 0.592838 4.35551 1.02852L16 12.673L27.6445 1.02852C28.0802 0.592838 28.6347 0.375 29.308 0.375C29.9813 0.375 30.5358 0.592838 30.9715 1.02852C31.4072 1.46419 31.625 2.01869 31.625 2.69201C31.625 3.36534 31.4072 3.91983 30.9715 4.35551L19.327 16L30.9715 27.6445C31.4072 28.0802 31.625 28.6347 31.625 29.308C31.625 29.9813 31.4072 30.5358 30.9715 30.9715C30.5358 31.4072 29.9813 31.625 29.308 31.625C28.6347 31.625 28.0802 31.4072 27.6445 30.9715L16 19.327Z" fill="#6E6E6E"/>
</svg>
