<svg width="237" height="228" viewBox="0 0 237 228" fill="none" xmlns="http://www.w3.org/2000/svg">
<rect y="178" width="50" height="50" rx="12" fill="#4BAF4F"/>
<path d="M24.9997 193C23.1432 193 21.3627 193.737 20.0499 195.05C18.7372 196.363 17.9997 198.143 17.9997 200V203.528C17.9998 203.683 17.9639 203.836 17.8947 203.975L16.1777 207.408C16.0938 207.576 16.0542 207.762 16.0626 207.949C16.0711 208.137 16.1272 208.319 16.2258 208.478C16.3244 208.638 16.4622 208.77 16.626 208.861C16.7897 208.952 16.9742 209 17.1617 209H32.8377C33.0252 209 33.2096 208.952 33.3734 208.861C33.5372 208.77 33.6749 208.638 33.7735 208.478C33.8721 208.319 33.9283 208.137 33.9367 207.949C33.9452 207.762 33.9056 207.576 33.8217 207.408L32.1057 203.975C32.0361 203.836 31.9999 203.683 31.9997 203.528V200C31.9997 198.143 31.2622 196.363 29.9494 195.05C28.6367 193.737 26.8562 193 24.9997 193ZM24.9997 212C24.379 212 23.7736 211.808 23.2667 211.45C22.7599 211.092 22.3766 210.585 22.1697 210H27.8297C27.6228 210.585 27.2395 211.092 26.7327 211.45C26.2258 211.808 25.6203 212 24.9997 212Z" fill="white"/>
<path d="M59 20C59 8.95431 67.9543 0 79 0H217C228.046 0 237 8.95431 237 20V38C237 49.0457 228.046 58 217 58H65C61.6863 58 59 55.3137 59 52V20Z" fill="#4BAF4F" fill-opacity="0.15"/>
<path d="M59 91C59 79.9543 67.9543 71 79 71H217C228.046 71 237 79.9543 237 91V109C237 120.046 228.046 129 217 129H65C61.6863 129 59 126.314 59 123V91Z" fill="#4BAF4F" fill-opacity="0.15"/>
<path d="M59 162C59 150.954 67.9543 142 79 142H217C228.046 142 237 150.954 237 162V180C237 191.046 228.046 200 217 200H65C61.6863 200 59 197.314 59 194V162Z" fill="#4BAF4F" fill-opacity="0.15"/>
</svg>
