<svg width="557" height="323" viewBox="0 0 557 323" fill="none" xmlns="http://www.w3.org/2000/svg">
<path d="M21.2775 50.705C19.5072 50.705 17.87 50.3447 16.366 49.624C14.8777 48.9033 13.6087 47.9085 12.559 46.6395C11.525 45.3548 10.7887 43.8978 10.35 42.2685L12.935 41.5635C13.2797 42.8795 13.875 44.0232 14.721 44.9945C15.567 45.9502 16.5618 46.6943 17.7055 47.227C18.8492 47.744 20.0477 48.0025 21.301 48.0025C22.946 48.0025 24.4187 47.6108 25.719 46.8275C27.0193 46.0285 28.0455 44.9788 28.7975 43.6785C29.5652 42.3625 29.949 40.929 29.949 39.378C29.949 37.7487 29.5495 36.2838 28.7505 34.9835C27.9515 33.6832 26.894 32.6492 25.578 31.8815C24.2777 31.1138 22.852 30.73 21.301 30.73C19.6247 30.73 18.152 31.1217 16.883 31.905C15.6297 32.6727 14.6192 33.6753 13.8515 34.913L11.2665 33.644L12.3005 16.16H30.2545V18.792H13.311L14.909 17.3115L13.922 33.1975L13.123 32.0695C14.11 30.8632 15.332 29.9075 16.789 29.2025C18.246 28.4975 19.8048 28.145 21.4655 28.145C23.5335 28.145 25.4135 28.6463 27.1055 29.649C28.7975 30.6517 30.1448 32.0068 31.1475 33.7145C32.1658 35.4065 32.675 37.2943 32.675 39.378C32.675 41.4303 32.158 43.3182 31.124 45.0415C30.09 46.7492 28.7035 48.12 26.9645 49.154C25.2412 50.188 23.3455 50.705 21.2775 50.705ZM62.9144 50V43.138H46.7934V40.4825L58.2849 16.16H61.3164L49.8249 40.4825H62.9144V30.26H65.6404V40.4825H69.5179V43.138H65.6404V50H62.9144ZM74.1947 50L74.2417 47.415L89.7987 33.2915C91.1774 32.0538 92.0782 30.871 92.5012 29.743C92.9242 28.5993 93.1357 27.3773 93.1357 26.077C93.1357 24.6043 92.7832 23.2648 92.0782 22.0585C91.3732 20.8522 90.4176 19.8965 89.2112 19.1915C88.0206 18.4708 86.6811 18.1105 85.1927 18.1105C83.6731 18.1105 82.3101 18.4787 81.1037 19.215C79.8974 19.9513 78.9417 20.9227 78.2367 22.129C77.5474 23.3353 77.2027 24.6513 77.2027 26.077H74.4767C74.4767 24.0873 74.9546 22.2935 75.9102 20.6955C76.8659 19.0818 78.1506 17.805 79.7642 16.865C81.3936 15.925 83.2109 15.455 85.2162 15.455C87.2372 15.455 89.0467 15.9407 90.6447 16.912C92.2584 17.8677 93.5352 19.1523 94.4752 20.766C95.4152 22.3797 95.8852 24.1578 95.8852 26.1005C95.8852 27.4478 95.7286 28.6542 95.4152 29.7195C95.1176 30.7692 94.6397 31.7562 93.9817 32.6805C93.3237 33.5892 92.4777 34.5057 91.4437 35.43L76.7562 48.7545L76.1922 47.3445H95.8852V50H74.1947ZM112.195 50.705C110.206 50.705 108.404 50.2272 106.79 49.2715C105.192 48.3158 103.915 47.039 102.96 45.441C102.004 43.8273 101.526 42.0257 101.526 40.036V26.124C101.526 24.1343 102.004 22.3405 102.96 20.7425C103.915 19.1288 105.192 17.8442 106.79 16.8885C108.404 15.9328 110.206 15.455 112.195 15.455C114.185 15.455 115.987 15.9328 117.6 16.8885C119.214 17.8442 120.491 19.1288 121.431 20.7425C122.386 22.3405 122.864 24.1343 122.864 26.124V40.036C122.864 42.0257 122.386 43.8273 121.431 45.441C120.491 47.039 119.214 48.3158 117.6 49.2715C115.987 50.2272 114.185 50.705 112.195 50.705ZM112.195 48.0495C113.652 48.0495 114.976 47.697 116.167 46.992C117.373 46.2713 118.337 45.3078 119.057 44.1015C119.778 42.8952 120.138 41.5635 120.138 40.1065V26.03C120.138 24.5887 119.778 23.2648 119.057 22.0585C118.337 20.8522 117.373 19.8965 116.167 19.1915C114.976 18.4708 113.652 18.1105 112.195 18.1105C110.738 18.1105 109.407 18.4708 108.2 19.1915C107.01 19.8965 106.054 20.8522 105.333 22.0585C104.613 23.2648 104.252 24.5887 104.252 26.03V40.1065C104.252 41.5635 104.613 42.8952 105.333 44.1015C106.054 45.3078 107.01 46.2713 108.2 46.992C109.407 47.697 110.738 48.0495 112.195 48.0495Z" fill="#4BAF4F" fill-opacity="0.56"/>
<path d="M140.279 155V137.774L136.62 139.974V137.747L140.279 135.56H142.29V155H140.279ZM153.148 155.405C152.14 155.405 151.209 155.198 150.354 154.784C149.499 154.37 148.77 153.798 148.167 153.069C147.564 152.34 147.132 151.503 146.871 150.558L148.774 150.045C148.945 150.747 149.256 151.355 149.706 151.868C150.156 152.372 150.682 152.763 151.285 153.042C151.897 153.321 152.536 153.461 153.202 153.461C154.066 153.461 154.84 153.254 155.524 152.84C156.217 152.417 156.766 151.859 157.171 151.166C157.576 150.473 157.779 149.712 157.779 148.884C157.779 148.029 157.567 147.26 157.144 146.576C156.721 145.883 156.163 145.334 155.47 144.929C154.777 144.524 154.021 144.321 153.202 144.321C152.284 144.321 151.492 144.524 150.826 144.929C150.16 145.325 149.629 145.824 149.233 146.427L147.424 145.671L148.018 135.56H158.4V137.463H148.896L149.881 136.532L149.355 145.158L148.855 144.497C149.413 143.858 150.088 143.358 150.88 142.998C151.672 142.638 152.505 142.458 153.378 142.458C154.575 142.458 155.655 142.746 156.618 143.322C157.581 143.889 158.346 144.659 158.913 145.631C159.48 146.603 159.763 147.687 159.763 148.884C159.763 150.072 159.462 151.161 158.859 152.151C158.256 153.132 157.455 153.92 156.456 154.514C155.457 155.108 154.354 155.405 153.148 155.405ZM164.884 155L163.534 153.65L181.664 135.56L183.014 136.896L164.884 155ZM178.964 155.405C178.073 155.405 177.259 155.189 176.521 154.757C175.792 154.316 175.207 153.731 174.766 153.002C174.325 152.264 174.104 151.445 174.104 150.545C174.104 149.663 174.329 148.853 174.779 148.115C175.229 147.377 175.823 146.787 176.561 146.346C177.299 145.905 178.1 145.685 178.964 145.685C179.855 145.685 180.67 145.905 181.408 146.346C182.146 146.778 182.731 147.363 183.163 148.101C183.604 148.83 183.824 149.645 183.824 150.545C183.824 151.445 183.604 152.264 183.163 153.002C182.731 153.731 182.146 154.316 181.408 154.757C180.67 155.189 179.855 155.405 178.964 155.405ZM178.964 153.609C179.513 153.609 180.022 153.47 180.49 153.191C180.958 152.912 181.331 152.543 181.61 152.084C181.889 151.616 182.029 151.103 182.029 150.545C182.029 149.987 181.889 149.478 181.61 149.019C181.331 148.551 180.958 148.178 180.49 147.899C180.022 147.62 179.513 147.48 178.964 147.48C178.406 147.48 177.893 147.62 177.425 147.899C176.966 148.178 176.593 148.551 176.305 149.019C176.026 149.478 175.886 149.987 175.886 150.545C175.886 151.103 176.026 151.616 176.305 152.084C176.593 152.543 176.966 152.912 177.425 153.191C177.893 153.47 178.406 153.609 178.964 153.609ZM167.584 144.875C166.693 144.875 165.878 144.659 165.14 144.227C164.402 143.786 163.813 143.201 163.372 142.472C162.94 141.734 162.724 140.915 162.724 140.015C162.724 139.133 162.949 138.323 163.399 137.585C163.849 136.847 164.443 136.257 165.181 135.816C165.919 135.375 166.72 135.155 167.584 135.155C168.475 135.155 169.285 135.375 170.014 135.816C170.752 136.248 171.341 136.833 171.782 137.571C172.223 138.3 172.444 139.115 172.444 140.015C172.444 140.915 172.223 141.734 171.782 142.472C171.341 143.201 170.752 143.786 170.014 144.227C169.285 144.659 168.475 144.875 167.584 144.875ZM167.584 143.079C168.142 143.079 168.65 142.94 169.109 142.661C169.577 142.382 169.951 142.013 170.23 141.554C170.509 141.086 170.648 140.573 170.648 140.015C170.648 139.457 170.509 138.948 170.23 138.489C169.951 138.021 169.577 137.648 169.109 137.369C168.65 137.09 168.142 136.95 167.584 136.95C167.026 136.95 166.513 137.09 166.045 137.369C165.586 137.648 165.217 138.021 164.938 138.489C164.659 138.948 164.519 139.457 164.519 140.015C164.519 140.573 164.659 141.086 164.938 141.554C165.217 142.013 165.586 142.382 166.045 142.661C166.513 142.94 167.026 143.079 167.584 143.079Z" fill="#4BAF4F" fill-opacity="0.77"/>
<path d="M276 94.99L276.01 93.65L282.52 87.77C283.08 87.2633 283.45 86.7833 283.63 86.33C283.817 85.87 283.91 85.39 283.91 84.89C283.91 84.2967 283.77 83.76 283.49 83.28C283.21 82.8 282.833 82.42 282.36 82.14C281.887 81.8533 281.357 81.71 280.77 81.71C280.157 81.71 279.61 81.8567 279.13 82.15C278.65 82.4433 278.27 82.83 277.99 83.31C277.717 83.79 277.583 84.3133 277.59 84.88H276.09C276.09 84.0067 276.297 83.2233 276.71 82.53C277.123 81.8367 277.683 81.2933 278.39 80.9C279.097 80.5 279.897 80.3 280.79 80.3C281.663 80.3 282.447 80.5067 283.14 80.92C283.84 81.3267 284.39 81.88 284.79 82.58C285.197 83.2733 285.4 84.0467 285.4 84.9C285.4 85.5 285.327 86.03 285.18 86.49C285.04 86.9433 284.817 87.3667 284.51 87.76C284.21 88.1467 283.827 88.5467 283.36 88.96L277.58 94.18L277.35 93.58H285.4V94.99H276ZM294.32 95V82.24L291.61 83.87V82.22L294.32 80.6H295.81V95H294.32ZM303.853 95.3C303.106 95.3 302.416 95.1467 301.783 94.84C301.15 94.5333 300.61 94.11 300.163 93.57C299.716 93.03 299.396 92.41 299.203 91.71L300.613 91.33C300.74 91.85 300.97 92.3 301.303 92.68C301.636 93.0533 302.026 93.3433 302.473 93.55C302.926 93.7567 303.4 93.86 303.893 93.86C304.533 93.86 305.106 93.7067 305.613 93.4C306.126 93.0867 306.533 92.6733 306.833 92.16C307.133 91.6467 307.283 91.0833 307.283 90.47C307.283 89.8367 307.126 89.2667 306.813 88.76C306.5 88.2467 306.086 87.84 305.573 87.54C305.06 87.24 304.5 87.09 303.893 87.09C303.213 87.09 302.626 87.24 302.133 87.54C301.64 87.8333 301.246 88.2033 300.953 88.65L299.613 88.09L300.053 80.6H307.743V82.01H300.703L301.433 81.32L301.043 87.71L300.673 87.22C301.086 86.7467 301.586 86.3767 302.173 86.11C302.76 85.8433 303.376 85.71 304.023 85.71C304.91 85.71 305.71 85.9233 306.423 86.35C307.136 86.77 307.703 87.34 308.123 88.06C308.543 88.78 308.753 89.5833 308.753 90.47C308.753 91.35 308.53 92.1567 308.083 92.89C307.636 93.6167 307.043 94.2 306.303 94.64C305.563 95.08 304.746 95.3 303.853 95.3ZM315.846 95.3C314.959 95.3 314.159 95.0933 313.446 94.68C312.739 94.2667 312.179 93.7067 311.766 93C311.353 92.2867 311.146 91.4867 311.146 90.6V85C311.146 84.1133 311.353 83.3167 311.766 82.61C312.179 81.8967 312.739 81.3333 313.446 80.92C314.159 80.5067 314.959 80.3 315.846 80.3C316.733 80.3 317.529 80.5067 318.236 80.92C318.949 81.3333 319.513 81.8967 319.926 82.61C320.339 83.3167 320.546 84.1133 320.546 85V90.6C320.546 91.4867 320.339 92.2867 319.926 93C319.513 93.7067 318.949 94.2667 318.236 94.68C317.529 95.0933 316.733 95.3 315.846 95.3ZM315.846 93.88C316.439 93.88 316.979 93.7367 317.466 93.45C317.953 93.1567 318.339 92.7667 318.626 92.28C318.913 91.7933 319.056 91.2567 319.056 90.67V84.93C319.056 84.3367 318.913 83.7967 318.626 83.31C318.339 82.8233 317.953 82.4367 317.466 82.15C316.979 81.8567 316.439 81.71 315.846 81.71C315.253 81.71 314.713 81.8567 314.226 82.15C313.739 82.4367 313.353 82.8233 313.066 83.31C312.779 83.7967 312.636 84.3367 312.636 84.93V90.67C312.636 91.2567 312.779 91.7933 313.066 92.28C313.353 92.7667 313.739 93.1567 314.226 93.45C314.713 93.7367 315.253 93.88 315.846 93.88Z" fill="#4BAF4F" fill-opacity="0.89"/>
<path d="M397.75 242.962L397.788 235.987L421.3 214.912C423.2 213.237 424.488 211.637 425.163 210.112C425.863 208.587 426.213 207.062 426.213 205.537C426.213 203.612 425.788 201.887 424.938 200.362C424.088 198.812 422.913 197.587 421.413 196.687C419.913 195.787 418.188 195.337 416.238 195.337C414.238 195.337 412.45 195.812 410.875 196.762C409.325 197.687 408.113 198.925 407.238 200.475C406.363 202.025 405.938 203.7 405.963 205.5H397.938C397.938 202 398.725 198.937 400.3 196.312C401.9 193.662 404.088 191.6 406.863 190.125C409.638 188.625 412.813 187.875 416.388 187.875C419.788 187.875 422.838 188.65 425.538 190.2C428.238 191.725 430.363 193.825 431.913 196.5C433.488 199.175 434.275 202.225 434.275 205.65C434.275 208.125 433.95 210.225 433.3 211.95C432.65 213.675 431.675 215.275 430.375 216.75C429.075 218.225 427.45 219.825 425.5 221.55L407.35 237.75L406.488 235.5H434.275V242.962H397.75ZM444.619 243V234.712H452.906V243H444.619ZM480.741 244.125C477.966 244.125 475.379 243.563 472.979 242.437C470.604 241.287 468.566 239.712 466.866 237.712C465.166 235.687 463.954 233.362 463.229 230.737L470.766 228.712C471.191 230.312 471.916 231.7 472.941 232.875C473.991 234.05 475.216 234.962 476.616 235.612C478.016 236.237 479.466 236.55 480.966 236.55C482.941 236.55 484.729 236.075 486.329 235.125C487.954 234.175 489.229 232.9 490.154 231.3C491.104 229.7 491.579 227.937 491.579 226.012C491.579 224.037 491.091 222.25 490.116 220.65C489.166 219.05 487.879 217.787 486.254 216.862C484.654 215.912 482.891 215.437 480.966 215.437C478.766 215.437 476.904 215.875 475.379 216.75C473.854 217.625 472.666 218.637 471.816 219.787L464.991 217.387L466.641 189H495.779V196.387H470.654L473.841 193.425L472.529 214.687L470.991 212.7C472.416 211.275 474.116 210.187 476.091 209.437C478.066 208.687 480.029 208.312 481.979 208.312C485.329 208.312 488.316 209.087 490.941 210.637C493.591 212.187 495.679 214.3 497.204 216.975C498.729 219.625 499.491 222.637 499.491 226.012C499.491 229.362 498.629 232.412 496.904 235.162C495.179 237.887 492.891 240.062 490.041 241.687C487.191 243.313 484.091 244.125 480.741 244.125ZM527.017 244.125C523.517 244.125 520.367 243.3 517.567 241.65C514.767 239.975 512.542 237.687 510.892 234.787C509.267 231.887 508.454 228.587 508.454 224.887V207.675C508.454 203.75 509.267 200.3 510.892 197.325C512.542 194.35 514.817 192.037 517.717 190.387C520.642 188.737 524.004 187.912 527.804 187.912C530.654 187.912 533.329 188.45 535.829 189.525C538.329 190.6 540.492 192.2 542.317 194.325L536.579 199.687C535.554 198.362 534.267 197.312 532.717 196.537C531.192 195.737 529.554 195.337 527.804 195.337C525.554 195.337 523.579 195.875 521.879 196.95C520.179 198 518.842 199.387 517.867 201.112C516.917 202.837 516.442 204.687 516.442 206.662V216.562L514.904 214.837C516.454 212.812 518.379 211.212 520.679 210.037C522.979 208.862 525.442 208.275 528.067 208.275C531.417 208.275 534.404 209.062 537.029 210.637C539.679 212.187 541.754 214.3 543.254 216.975C544.779 219.65 545.542 222.662 545.542 226.012C545.542 229.387 544.692 232.45 542.992 235.2C541.317 237.925 539.067 240.1 536.242 241.725C533.442 243.325 530.367 244.125 527.017 244.125ZM527.017 236.587C528.967 236.587 530.742 236.112 532.342 235.162C533.942 234.212 535.217 232.937 536.167 231.337C537.117 229.737 537.592 227.962 537.592 226.012C537.592 224.062 537.117 222.287 536.167 220.687C535.242 219.087 533.979 217.812 532.379 216.862C530.779 215.912 529.004 215.437 527.054 215.437C525.104 215.437 523.317 215.912 521.692 216.862C520.092 217.812 518.817 219.087 517.867 220.687C516.917 222.287 516.442 224.062 516.442 226.012C516.442 227.937 516.917 229.7 517.867 231.3C518.817 232.9 520.092 234.187 521.692 235.162C523.292 236.112 525.067 236.587 527.017 236.587Z" fill="#4BAF4F" fill-opacity="0.74"/>
<path d="M397.169 48.645C395.578 48.645 394.095 48.3153 392.719 47.656C391.357 46.9967 390.189 46.0937 389.214 44.947C388.254 43.786 387.566 42.453 387.15 40.948L390.827 39.959C391.085 40.9767 391.543 41.8582 392.203 42.6035C392.862 43.3345 393.629 43.9078 394.503 44.3235C395.392 44.7248 396.316 44.9255 397.277 44.9255C398.538 44.9255 399.67 44.6245 400.674 44.0225C401.691 43.4062 402.494 42.5963 403.082 41.593C403.669 40.5753 403.963 39.4645 403.963 38.2605C403.963 37.0135 403.655 35.8883 403.039 34.885C402.437 33.8673 401.627 33.0647 400.609 32.477C399.591 31.8893 398.481 31.5955 397.277 31.5955C395.915 31.5955 394.747 31.8822 393.772 32.4555C392.812 33.0145 392.052 33.7025 391.493 34.5195L388.096 33.2295L389.042 17.04H405.662V20.6735H390.891L392.59 19.0825L391.794 32.047L390.956 30.9505C391.816 30.0332 392.84 29.3237 394.03 28.822C395.234 28.3203 396.46 28.0695 397.707 28.0695C399.627 28.0695 401.347 28.521 402.867 29.424C404.386 30.3127 405.59 31.531 406.479 33.079C407.367 34.6127 407.812 36.3398 407.812 38.2605C407.812 40.1668 407.324 41.9083 406.35 43.485C405.375 45.0473 404.078 46.3015 402.458 47.2475C400.853 48.1792 399.09 48.645 397.169 48.645ZM432.118 48.645C430.155 48.645 428.37 48.172 426.765 47.226C425.174 46.28 423.905 44.99 422.959 43.356C422.028 41.7077 421.562 39.8515 421.562 37.7875V27.489C421.562 25.3247 422.028 23.4112 422.959 21.7485C423.905 20.0715 425.195 18.7672 426.829 17.8355C428.478 16.8895 430.355 16.4165 432.462 16.4165C434.168 16.4165 435.752 16.7677 437.214 17.47C438.69 18.158 439.93 19.1542 440.933 20.4585L438.074 22.9955C437.457 22.0925 436.655 21.3758 435.666 20.8455C434.677 20.3152 433.609 20.05 432.462 20.05C431.101 20.05 429.889 20.3797 428.829 21.039C427.782 21.684 426.958 22.544 426.356 23.619C425.754 24.6797 425.453 25.8263 425.453 27.059V33.2725L424.615 32.3265C425.518 31.0365 426.664 30.0045 428.055 29.2305C429.445 28.4565 430.95 28.0695 432.57 28.0695C434.49 28.0695 436.21 28.521 437.73 29.424C439.263 30.327 440.467 31.5525 441.342 33.1005C442.23 34.6342 442.675 36.3613 442.675 38.282C442.675 40.2027 442.195 41.9442 441.234 43.5065C440.274 45.0688 438.991 46.3158 437.386 47.2475C435.795 48.1792 434.039 48.645 432.118 48.645ZM432.118 44.947C433.351 44.947 434.476 44.6532 435.494 44.0655C436.511 43.4635 437.314 42.6608 437.902 41.6575C438.504 40.6398 438.805 39.5147 438.805 38.282C438.805 37.0493 438.504 35.9242 437.902 34.9065C437.314 33.8888 436.511 33.0862 435.494 32.4985C434.49 31.8965 433.372 31.5955 432.14 31.5955C430.907 31.5955 429.782 31.8965 428.764 32.4985C427.761 33.0862 426.958 33.8888 426.356 34.9065C425.754 35.9242 425.453 37.0493 425.453 38.282C425.453 39.5003 425.747 40.6183 426.335 41.636C426.937 42.6393 427.739 43.442 428.743 44.044C429.76 44.646 430.886 44.947 432.118 44.947ZM458.718 48.645C456.711 48.645 454.919 48.1935 453.343 47.2905C451.78 46.3732 450.541 45.1333 449.623 43.571C448.72 41.9943 448.269 40.2027 448.269 38.196V26.844C448.269 24.8373 448.72 23.0457 449.623 21.469C450.541 19.8923 451.78 18.6525 453.343 17.7495C454.919 16.8465 456.711 16.395 458.718 16.395C460.724 16.395 462.516 16.8465 464.093 17.7495C465.669 18.6525 466.909 19.8923 467.812 21.469C468.715 23.0457 469.167 24.8373 469.167 26.844V38.196C469.167 40.2027 468.715 41.9943 467.812 43.571C466.909 45.1333 465.669 46.3732 464.093 47.2905C462.516 48.1935 460.724 48.645 458.718 48.645ZM458.718 44.9685C459.936 44.9685 461.04 44.6747 462.029 44.087C463.018 43.4993 463.806 42.711 464.394 41.722C464.981 40.7187 465.275 39.615 465.275 38.411V26.6075C465.275 25.3892 464.981 24.2855 464.394 23.2965C463.806 22.3075 463.018 21.5192 462.029 20.9315C461.04 20.3438 459.936 20.05 458.718 20.05C457.514 20.05 456.41 20.3438 455.407 20.9315C454.418 21.5192 453.629 22.3075 453.042 23.2965C452.454 24.2855 452.16 25.3892 452.16 26.6075V38.411C452.16 39.615 452.454 40.7187 453.042 41.722C453.629 42.711 454.418 43.4993 455.407 44.087C456.41 44.6747 457.514 44.9685 458.718 44.9685ZM476.82 48L487.957 20.7165H473.896V17.04H492.063V20.7165L480.948 48H476.82ZM516.289 48.645C514.282 48.645 512.491 48.1935 510.914 47.2905C509.352 46.3732 508.112 45.1333 507.195 43.571C506.292 41.9943 505.84 40.2027 505.84 38.196V26.844C505.84 24.8373 506.292 23.0457 507.195 21.469C508.112 19.8923 509.352 18.6525 510.914 17.7495C512.491 16.8465 514.282 16.395 516.289 16.395C518.296 16.395 520.087 16.8465 521.664 17.7495C523.241 18.6525 524.481 19.8923 525.384 21.469C526.287 23.0457 526.738 24.8373 526.738 26.844V38.196C526.738 40.2027 526.287 41.9943 525.384 43.571C524.481 45.1333 523.241 46.3732 521.664 47.2905C520.087 48.1935 518.296 48.645 516.289 48.645ZM516.289 44.9685C517.507 44.9685 518.611 44.6747 519.6 44.087C520.589 43.4993 521.377 42.711 521.965 41.722C522.553 40.7187 522.847 39.615 522.847 38.411V26.6075C522.847 25.3892 522.553 24.2855 521.965 23.2965C521.377 22.3075 520.589 21.5192 519.6 20.9315C518.611 20.3438 517.507 20.05 516.289 20.05C515.085 20.05 513.981 20.3438 512.978 20.9315C511.989 21.5192 511.201 22.3075 510.613 23.2965C510.025 24.2855 509.732 25.3892 509.732 26.6075V38.411C509.732 39.615 510.025 40.7187 510.613 41.722C511.201 42.711 511.989 43.4993 512.978 44.087C513.981 44.6747 515.085 44.9685 516.289 44.9685ZM543.206 48.645C541.199 48.645 539.408 48.1935 537.831 47.2905C536.269 46.3732 535.029 45.1333 534.112 43.571C533.209 41.9943 532.757 40.2027 532.757 38.196V26.844C532.757 24.8373 533.209 23.0457 534.112 21.469C535.029 19.8923 536.269 18.6525 537.831 17.7495C539.408 16.8465 541.199 16.395 543.206 16.395C545.213 16.395 547.004 16.8465 548.581 17.7495C550.158 18.6525 551.398 19.8923 552.301 21.469C553.204 23.0457 553.655 24.8373 553.655 26.844V38.196C553.655 40.2027 553.204 41.9943 552.301 43.571C551.398 45.1333 550.158 46.3732 548.581 47.2905C547.004 48.1935 545.213 48.645 543.206 48.645ZM543.206 44.9685C544.424 44.9685 545.528 44.6747 546.517 44.087C547.506 43.4993 548.294 42.711 548.882 41.722C549.47 40.7187 549.764 39.615 549.764 38.411V26.6075C549.764 25.3892 549.47 24.2855 548.882 23.2965C548.294 22.3075 547.506 21.5192 546.517 20.9315C545.528 20.3438 544.424 20.05 543.206 20.05C542.002 20.05 540.898 20.3438 539.895 20.9315C538.906 21.5192 538.118 22.3075 537.53 23.2965C536.942 24.2855 536.649 25.3892 536.649 26.6075V38.411C536.649 39.615 536.942 40.7187 537.53 41.722C538.118 42.711 538.906 43.4993 539.895 44.087C540.898 44.6747 542.002 44.9685 543.206 44.9685Z" fill="#4BAF4F" fill-opacity="0.92"/>
<path d="M16.813 297V244.97L5.16 252.065V242.046L16.813 235.08H25.972V297H16.813ZM60.6623 298.29C57.4803 298.29 54.5133 297.645 51.7613 296.355C49.0379 295.036 46.7016 293.23 44.7523 290.937C42.8029 288.615 41.4126 285.949 40.5813 282.939L49.2243 280.617C49.7116 282.452 50.5429 284.043 51.7183 285.39C52.9223 286.737 54.3269 287.784 55.9323 288.529C57.5376 289.246 59.2003 289.604 60.9203 289.604C63.1849 289.604 65.2346 289.059 67.0693 287.97C68.9326 286.881 70.3946 285.419 71.4553 283.584C72.5446 281.749 73.0893 279.728 73.0893 277.521C73.0893 275.256 72.5303 273.207 71.4123 271.372C70.3229 269.537 68.8466 268.09 66.9833 267.029C65.1486 265.94 63.1276 265.395 60.9203 265.395C58.3976 265.395 56.2619 265.897 54.5133 266.9C52.7646 267.903 51.4029 269.064 50.4283 270.383L42.6022 267.631L44.4943 235.08H77.9053V243.551H49.0953L52.7503 240.154L51.2453 264.535L49.4823 262.256C51.1163 260.622 53.0656 259.375 55.3303 258.515C57.5949 257.655 59.8453 257.225 62.0813 257.225C65.9226 257.225 69.3483 258.114 72.3583 259.891C75.3969 261.668 77.7906 264.091 79.5393 267.158C81.2879 270.197 82.1623 273.651 82.1623 277.521C82.1623 281.362 81.1733 284.86 79.1953 288.013C77.2173 291.138 74.5943 293.632 71.3263 295.495C68.0583 297.358 64.5036 298.29 60.6623 298.29ZM100.18 297L94.1599 290.98L150.103 235.08L156.123 241.143L100.18 297ZM143.223 298.29C140.385 298.29 137.791 297.602 135.44 296.226C133.118 294.821 131.255 292.958 129.85 290.636C128.445 288.285 127.743 285.677 127.743 282.81C127.743 280.001 128.46 277.421 129.893 275.07C131.326 272.719 133.218 270.842 135.569 269.437C137.92 268.032 140.471 267.33 143.223 267.33C146.061 267.33 148.655 268.032 151.006 269.437C153.357 270.813 155.22 272.676 156.596 275.027C158.001 277.349 158.703 279.943 158.703 282.81C158.703 285.677 158.001 288.285 156.596 290.636C155.22 292.958 153.357 294.821 151.006 296.226C148.655 297.602 146.061 298.29 143.223 298.29ZM143.223 290.507C144.628 290.507 145.903 290.163 147.05 289.475C148.225 288.758 149.157 287.812 149.845 286.637C150.562 285.462 150.92 284.186 150.92 282.81C150.92 281.434 150.562 280.158 149.845 278.983C149.157 277.808 148.225 276.876 147.05 276.188C145.903 275.471 144.628 275.113 143.223 275.113C141.847 275.113 140.571 275.471 139.396 276.188C138.249 276.876 137.318 277.808 136.601 278.983C135.913 280.158 135.569 281.434 135.569 282.81C135.569 284.186 135.913 285.462 136.601 286.637C137.318 287.812 138.249 288.758 139.396 289.475C140.571 290.163 141.847 290.507 143.223 290.507ZM107.06 264.75C104.222 264.75 101.628 264.062 99.2769 262.686C96.9263 261.281 95.0486 259.418 93.6439 257.096C92.2679 254.745 91.5799 252.137 91.5799 249.27C91.5799 246.461 92.2966 243.881 93.7299 241.53C95.1633 239.179 97.0553 237.302 99.4059 235.897C101.757 234.492 104.308 233.79 107.06 233.79C109.898 233.79 112.478 234.492 114.8 235.897C117.151 237.273 119.028 239.136 120.433 241.487C121.838 243.809 122.54 246.403 122.54 249.27C122.54 252.137 121.838 254.745 120.433 257.096C119.028 259.418 117.151 261.281 114.8 262.686C112.478 264.062 109.898 264.75 107.06 264.75ZM107.06 256.967C108.436 256.967 109.712 256.623 110.887 255.935C112.062 255.218 112.994 254.272 113.682 253.097C114.399 251.922 114.757 250.646 114.757 249.27C114.757 247.894 114.399 246.618 113.682 245.443C112.994 244.268 112.062 243.336 110.887 242.648C109.712 241.931 108.436 241.573 107.06 241.573C105.684 241.573 104.408 241.931 103.233 242.648C102.086 243.336 101.155 244.268 100.438 245.443C99.7213 246.618 99.3629 247.894 99.3629 249.27C99.3629 250.646 99.7213 251.922 100.438 253.097C101.155 254.272 102.086 255.218 103.233 255.935C104.38 256.623 105.655 256.967 107.06 256.967Z" fill="#4BAF4F"/>
</svg>
