<svg width="336" height="168" viewBox="0 0 336 168" fill="none" xmlns="http://www.w3.org/2000/svg">
<path d="M22.0147 35.2185C20.9461 35.2185 19.9579 35.001 19.05 34.566C18.1516 34.131 17.3856 33.5305 16.752 32.7645C16.1278 31.989 15.6833 31.1095 15.4185 30.126L16.9789 29.7004C17.187 30.4948 17.5463 31.1852 18.057 31.7715C18.5677 32.3484 19.1682 32.7976 19.8586 33.1191C20.5489 33.4312 21.2724 33.5872 22.0289 33.5872C23.0219 33.5872 23.9108 33.3508 24.6958 32.8779C25.4807 32.3956 26.1001 31.762 26.5541 30.9771C27.0174 30.1827 27.2491 29.3174 27.2491 28.3812C27.2491 27.3977 27.008 26.5134 26.5257 25.7285C26.0434 24.9436 25.405 24.3194 24.6107 23.856C23.8257 23.3927 22.9652 23.161 22.0289 23.161C21.017 23.161 20.1281 23.3974 19.3621 23.8702C18.6055 24.3336 17.9955 24.9389 17.5322 25.686L15.9718 24.9199L16.5959 14.366H27.4335V15.9548H17.2059L18.1705 15.0611L17.5747 24.6504L17.0924 23.9695C17.6882 23.2413 18.4258 22.6645 19.3053 22.2389C20.1848 21.8134 21.1258 21.6006 22.1282 21.6006C23.3765 21.6006 24.5114 21.9032 25.5327 22.5084C26.5541 23.1137 27.3674 23.9317 27.9726 24.9625C28.5873 25.9839 28.8946 27.1234 28.8946 28.3812C28.8946 29.62 28.5826 30.7596 27.9584 31.7999C27.3343 32.8307 26.4973 33.6581 25.4476 34.2823C24.4073 34.9065 23.263 35.2185 22.0147 35.2185ZM47.1481 34.793V30.6508H37.4169V29.0479L44.3536 14.366H46.1835L39.2469 29.0479H47.1481V22.8773H48.7936V29.0479H51.1342V30.6508H48.7936V34.793H47.1481ZM53.9573 34.793L53.9857 33.2326L63.3764 24.7072C64.2086 23.9601 64.7524 23.2461 65.0077 22.5652C65.2631 21.8748 65.3907 21.1372 65.3907 20.3523C65.3907 19.4633 65.1779 18.6547 64.7524 17.9266C64.3268 17.1984 63.7499 16.6215 63.0218 16.1959C62.303 15.7609 61.4945 15.5434 60.5961 15.5434C59.6787 15.5434 58.856 15.7657 58.1278 16.2101C57.3996 16.6546 56.8228 17.2409 56.3972 17.9691C55.9811 18.6973 55.773 19.4917 55.773 20.3523H54.1275C54.1275 19.1512 54.416 18.0684 54.9928 17.1038C55.5697 16.1297 56.3452 15.359 57.3192 14.7916C58.3028 14.2242 59.3998 13.9405 60.6103 13.9405C61.8302 13.9405 62.9225 14.2336 63.8871 14.82C64.8611 15.3968 65.6319 16.1723 66.1993 17.1464C66.7667 18.1204 67.0504 19.1938 67.0504 20.3664C67.0504 21.1797 66.9558 21.9079 66.7667 22.551C66.587 23.1846 66.2986 23.7804 65.9014 24.3383C65.5042 24.8868 64.9935 25.4401 64.3694 25.998L55.5035 34.0411L55.1631 33.19H67.0504V34.793H53.9573ZM76.8957 35.2185C75.6947 35.2185 74.6072 34.9301 73.6331 34.3532C72.6685 33.7764 71.8977 33.0056 71.3209 32.041C70.744 31.0669 70.4556 29.9794 70.4556 28.7784V20.3806C70.4556 19.1796 70.744 18.0968 71.3209 17.1322C71.8977 16.1581 72.6685 15.3827 73.6331 14.8058C74.6072 14.2289 75.6947 13.9405 76.8957 13.9405C78.0968 13.9405 79.1843 14.2289 80.1584 14.8058C81.1324 15.3827 81.9032 16.1581 82.4706 17.1322C83.0474 18.0968 83.3359 19.1796 83.3359 20.3806V28.7784C83.3359 29.9794 83.0474 31.0669 82.4706 32.041C81.9032 33.0056 81.1324 33.7764 80.1584 34.3532C79.1843 34.9301 78.0968 35.2185 76.8957 35.2185ZM76.8957 33.6156C77.7752 33.6156 78.5743 33.4028 79.2931 32.9772C80.0212 32.5422 80.6028 31.9606 81.0379 31.2324C81.4729 30.5043 81.6904 29.7004 81.6904 28.8209V20.3239C81.6904 19.4539 81.4729 18.6547 81.0379 17.9266C80.6028 17.1984 80.0212 16.6215 79.2931 16.1959C78.5743 15.7609 77.7752 15.5434 76.8957 15.5434C76.0162 15.5434 75.2124 15.7609 74.4842 16.1959C73.7655 16.6215 73.1886 17.1984 72.7536 17.9266C72.3186 18.6547 72.1011 19.4539 72.1011 20.3239V28.8209C72.1011 29.7004 72.3186 30.5043 72.7536 31.2324C73.1886 31.9606 73.7655 32.5422 74.4842 32.9772C75.2124 33.4028 76.0162 33.6156 76.8957 33.6156Z" fill="#4BAF4F" fill-opacity="0.56"/>
<path d="M84.6765 91.8501V81.4519L82.4681 82.7802V81.4356L84.6765 80.1155H85.8907V91.8501H84.6765ZM92.445 92.0946C91.8365 92.0946 91.2742 91.9696 90.7581 91.7197C90.242 91.4698 89.802 91.1248 89.438 90.6848C89.074 90.2447 88.8132 89.7395 88.6557 89.1691L89.8047 88.8594C89.9079 89.2831 90.0953 89.6499 90.367 89.9595C90.6386 90.2638 90.9564 90.5001 91.3204 90.6685C91.6898 90.8369 92.0755 90.9211 92.4776 90.9211C92.9991 90.9211 93.4663 90.7962 93.8792 90.5463C94.2975 90.2909 94.6289 89.9541 94.8734 89.5358C95.1179 89.1175 95.2401 88.6584 95.2401 88.1586C95.2401 87.6425 95.1124 87.178 94.8571 86.7651C94.6017 86.3468 94.2649 86.0154 93.8466 85.7709C93.4283 85.5264 92.9719 85.4042 92.4776 85.4042C91.9234 85.4042 91.4454 85.5264 91.0433 85.7709C90.6413 86.0099 90.3208 86.3115 90.0817 86.6755L88.9898 86.2191L89.3483 80.1155H95.6149V81.2645H89.878L90.4729 80.7022L90.1551 85.9094L89.8536 85.5101C90.1904 85.1244 90.5979 84.8229 91.0759 84.6056C91.554 84.3883 92.0565 84.2796 92.5835 84.2796C93.3061 84.2796 93.958 84.4535 94.5393 84.8012C95.1206 85.1434 95.5823 85.6079 95.9246 86.1947C96.2669 86.7814 96.438 87.436 96.438 88.1586C96.438 88.8757 96.256 89.5331 95.892 90.1306C95.528 90.7228 95.0445 91.1982 94.4415 91.5567C93.8385 91.9153 93.1729 92.0946 92.445 92.0946ZM99.5289 91.8501L98.714 91.0352L109.658 80.1155L110.473 80.9222L99.5289 91.8501ZM108.028 92.0946C107.491 92.0946 106.999 91.9642 106.553 91.7034C106.113 91.4372 105.76 91.0841 105.494 90.644C105.228 90.1986 105.095 89.7042 105.095 89.1609C105.095 88.6285 105.231 88.1396 105.502 87.6941C105.774 87.2486 106.132 86.8928 106.578 86.6266C107.023 86.3604 107.507 86.2273 108.028 86.2273C108.566 86.2273 109.058 86.3604 109.503 86.6266C109.949 86.8873 110.302 87.2405 110.563 87.6859C110.829 88.126 110.962 88.6176 110.962 89.1609C110.962 89.7042 110.829 90.1986 110.563 90.644C110.302 91.0841 109.949 91.4372 109.503 91.7034C109.058 91.9642 108.566 92.0946 108.028 92.0946ZM108.028 91.0107C108.36 91.0107 108.667 90.9265 108.949 90.7581C109.232 90.5897 109.457 90.367 109.626 90.0899C109.794 89.8074 109.878 89.4977 109.878 89.1609C109.878 88.8241 109.794 88.5171 109.626 88.2401C109.457 87.9576 109.232 87.7321 108.949 87.5637C108.667 87.3953 108.36 87.3111 108.028 87.3111C107.692 87.3111 107.382 87.3953 107.099 87.5637C106.822 87.7321 106.597 87.9576 106.423 88.2401C106.255 88.5171 106.17 88.8241 106.17 89.1609C106.17 89.4977 106.255 89.8074 106.423 90.0899C106.597 90.367 106.822 90.5897 107.099 90.7581C107.382 90.9265 107.692 91.0107 108.028 91.0107ZM101.159 85.7383C100.621 85.7383 100.129 85.6079 99.6837 85.3472C99.2383 85.081 98.8824 84.7278 98.6162 84.2878C98.3554 83.8423 98.2251 83.3479 98.2251 82.8047C98.2251 82.2723 98.3609 81.7833 98.6325 81.3378C98.9041 80.8924 99.2627 80.5365 99.7082 80.2703C100.154 80.0041 100.637 79.871 101.159 79.871C101.697 79.871 102.185 80.0041 102.626 80.2703C103.071 80.5311 103.427 80.8842 103.693 81.3297C103.959 81.7697 104.092 82.2614 104.092 82.8047C104.092 83.3479 103.959 83.8423 103.693 84.2878C103.427 84.7278 103.071 85.081 102.626 85.3472C102.185 85.6079 101.697 85.7383 101.159 85.7383ZM101.159 84.6545C101.496 84.6545 101.802 84.5703 102.08 84.4019C102.362 84.2335 102.588 84.0107 102.756 83.7337C102.924 83.4511 103.009 83.1415 103.009 82.8047C103.009 82.4678 102.924 82.1609 102.756 81.8838C102.588 81.6013 102.362 81.3759 102.08 81.2074C101.802 81.039 101.496 80.9548 101.159 80.9548C100.822 80.9548 100.512 81.039 100.23 81.2074C99.9527 81.3759 99.7299 81.6013 99.5615 81.8838C99.3931 82.1609 99.3089 82.4678 99.3089 82.8047C99.3089 83.1415 99.3931 83.4511 99.5615 83.7337C99.7299 84.0107 99.9527 84.2335 100.23 84.4019C100.512 84.5703 100.822 84.6545 101.159 84.6545Z" fill="#4BAF4F" fill-opacity="0.77"/>
<path d="M166.602 56.4559L166.608 55.647L170.537 52.0976C170.875 51.7918 171.099 51.5021 171.207 51.2284C171.32 50.9507 171.376 50.661 171.376 50.3592C171.376 50.001 171.292 49.6771 171.123 49.3873C170.954 49.0976 170.727 48.8682 170.441 48.6992C170.155 48.5262 169.835 48.4396 169.481 48.4396C169.111 48.4396 168.781 48.5282 168.491 48.7052C168.201 48.8823 167.972 49.1157 167.803 49.4054C167.638 49.6952 167.557 50.0111 167.561 50.3531H166.656C166.656 49.826 166.781 49.3531 167.03 48.9346C167.28 48.5161 167.618 48.1881 168.044 47.9507C168.471 47.7092 168.954 47.5885 169.493 47.5885C170.02 47.5885 170.493 47.7133 170.912 47.9628C171.334 48.2082 171.666 48.5422 171.908 48.9648C172.153 49.3833 172.276 49.8501 172.276 50.3652C172.276 50.7274 172.232 51.0473 172.143 51.325C172.059 51.5986 171.924 51.8542 171.739 52.0916C171.558 52.325 171.326 52.5665 171.044 52.816L167.555 55.9669L167.417 55.6048H172.276V56.4559H166.602ZM177.66 56.4619V48.7596L176.024 49.7435V48.7475L177.66 47.7696H178.56V56.4619H177.66ZM183.415 56.643C182.964 56.643 182.548 56.5504 182.165 56.3653C181.783 56.1802 181.457 55.9247 181.187 55.5987C180.918 55.2728 180.725 54.8985 180.608 54.476L181.459 54.2466C181.535 54.5605 181.674 54.8321 181.875 55.0615C182.077 55.2868 182.312 55.4619 182.582 55.5866C182.855 55.7114 183.141 55.7738 183.439 55.7738C183.825 55.7738 184.171 55.6812 184.477 55.4961C184.787 55.307 185.032 55.0575 185.214 54.7476C185.395 54.4377 185.485 54.0977 185.485 53.7275C185.485 53.3452 185.391 53.0011 185.201 52.6952C185.012 52.3854 184.763 52.1399 184.453 51.9588C184.143 51.7777 183.805 51.6872 183.439 51.6872C183.028 51.6872 182.674 51.7777 182.376 51.9588C182.079 52.1359 181.841 52.3592 181.664 52.6288L180.855 52.2908L181.121 47.7696H185.763V48.6207H181.513L181.954 48.2042L181.719 52.0614L181.495 51.7656C181.745 51.4799 182.047 51.2566 182.401 51.0956C182.755 50.9346 183.127 50.8542 183.517 50.8542C184.053 50.8542 184.535 50.9829 184.966 51.2405C185.397 51.494 185.739 51.8381 185.992 52.2727C186.246 52.7073 186.373 53.1922 186.373 53.7275C186.373 54.2587 186.238 54.7456 185.968 55.1882C185.698 55.6269 185.34 55.979 184.894 56.2446C184.447 56.5102 183.954 56.643 183.415 56.643ZM190.654 56.643C190.119 56.643 189.636 56.5183 189.205 56.2688C188.779 56.0192 188.441 55.6812 188.191 55.2546C187.942 54.8241 187.817 54.3412 187.817 53.8059V50.4256C187.817 49.8904 187.942 49.4095 188.191 48.9829C188.441 48.5523 188.779 48.2123 189.205 47.9628C189.636 47.7133 190.119 47.5885 190.654 47.5885C191.189 47.5885 191.67 47.7133 192.097 47.9628C192.527 48.2123 192.867 48.5523 193.117 48.9829C193.366 49.4095 193.491 49.8904 193.491 50.4256V53.8059C193.491 54.3412 193.366 54.8241 193.117 55.2546C192.867 55.6812 192.527 56.0192 192.097 56.2688C191.67 56.5183 191.189 56.643 190.654 56.643ZM190.654 55.7858C191.012 55.7858 191.338 55.6993 191.632 55.5263C191.926 55.3492 192.159 55.1138 192.332 54.82C192.505 54.5263 192.592 54.2023 192.592 53.8482V50.3833C192.592 50.0252 192.505 49.6992 192.332 49.4054C192.159 49.1117 191.926 48.8783 191.632 48.7052C191.338 48.5282 191.012 48.4396 190.654 48.4396C190.296 48.4396 189.97 48.5282 189.676 48.7052C189.382 48.8783 189.149 49.1117 188.976 49.4054C188.803 49.6992 188.716 50.0252 188.716 50.3833V53.8482C188.716 54.2023 188.803 54.5263 188.976 54.82C189.149 55.1138 189.382 55.3492 189.676 55.5263C189.97 55.6993 190.296 55.7858 190.654 55.7858Z" fill="#4BAF4F" fill-opacity="0.89"/>
<path d="M240.095 145.162L240.117 140.952L254.31 128.23C255.457 127.219 256.234 126.253 256.642 125.333C257.064 124.412 257.276 123.492 257.276 122.571C257.276 121.409 257.019 120.368 256.506 119.447C255.993 118.512 255.284 117.772 254.378 117.229C253.473 116.686 252.431 116.414 251.254 116.414C250.047 116.414 248.968 116.701 248.017 117.274C247.082 117.832 246.35 118.579 245.822 119.515C245.293 120.451 245.037 121.462 245.052 122.548H240.208C240.208 120.436 240.683 118.587 241.634 117.002C242.6 115.403 243.92 114.158 245.595 113.267C247.27 112.362 249.187 111.909 251.345 111.909C253.397 111.909 255.238 112.377 256.868 113.313C258.498 114.233 259.781 115.501 260.716 117.116C261.667 118.73 262.142 120.571 262.142 122.639C262.142 124.133 261.946 125.401 261.554 126.442C261.161 127.483 260.573 128.449 259.788 129.339C259.003 130.23 258.023 131.195 256.845 132.237L245.89 142.015L245.369 140.657H262.142V145.162H240.095ZM268.386 145.185V140.182H273.389V145.185H268.386ZM290.191 145.864C288.516 145.864 286.954 145.524 285.505 144.845C284.071 144.151 282.842 143.2 281.815 141.993C280.789 140.771 280.057 139.367 279.62 137.783L284.17 136.56C284.426 137.526 284.864 138.364 285.482 139.073C286.116 139.782 286.856 140.333 287.701 140.725C288.546 141.103 289.421 141.291 290.327 141.291C291.519 141.291 292.598 141.004 293.564 140.431C294.544 139.858 295.314 139.088 295.872 138.122C296.446 137.156 296.733 136.092 296.733 134.93C296.733 133.738 296.438 132.659 295.85 131.693C295.276 130.728 294.499 129.965 293.518 129.407C292.552 128.834 291.489 128.547 290.327 128.547C288.999 128.547 287.874 128.811 286.954 129.339C286.033 129.867 285.316 130.479 284.803 131.173L280.684 129.724L281.68 112.588H299.268V117.048H284.102L286.026 115.259L285.233 128.094L284.305 126.894C285.166 126.034 286.192 125.378 287.384 124.925C288.576 124.472 289.761 124.246 290.938 124.246C292.96 124.246 294.763 124.714 296.348 125.65C297.947 126.585 299.208 127.86 300.128 129.475C301.049 131.075 301.509 132.893 301.509 134.93C301.509 136.953 300.988 138.794 299.947 140.454C298.906 142.098 297.525 143.411 295.805 144.392C294.084 145.373 292.213 145.864 290.191 145.864ZM318.124 145.864C316.012 145.864 314.11 145.366 312.42 144.37C310.73 143.359 309.387 141.978 308.391 140.227C307.41 138.477 306.919 136.485 306.919 134.251V123.861C306.919 121.492 307.41 119.409 308.391 117.614C309.387 115.818 310.76 114.422 312.51 113.426C314.276 112.43 316.306 111.932 318.6 111.932C320.32 111.932 321.935 112.256 323.444 112.905C324.953 113.554 326.258 114.52 327.36 115.803L323.896 119.04C323.278 118.24 322.501 117.606 321.565 117.138C320.644 116.655 319.656 116.414 318.6 116.414C317.241 116.414 316.049 116.738 315.023 117.387C313.997 118.021 313.19 118.859 312.601 119.9C312.028 120.941 311.741 122.058 311.741 123.25V129.226L310.813 128.185C311.748 126.962 312.91 125.997 314.299 125.287C315.687 124.578 317.174 124.223 318.758 124.223C320.78 124.223 322.584 124.699 324.168 125.65C325.768 126.585 327.02 127.86 327.926 129.475C328.846 131.09 329.307 132.908 329.307 134.93C329.307 136.968 328.793 138.816 327.767 140.476C326.756 142.121 325.398 143.434 323.693 144.415C322.003 145.381 320.146 145.864 318.124 145.864ZM318.124 141.314C319.301 141.314 320.373 141.027 321.339 140.454C322.304 139.88 323.074 139.111 323.647 138.145C324.221 137.179 324.508 136.107 324.508 134.93C324.508 133.753 324.221 132.682 323.647 131.716C323.089 130.75 322.327 129.981 321.361 129.407C320.395 128.834 319.324 128.547 318.147 128.547C316.97 128.547 315.891 128.834 314.91 129.407C313.944 129.981 313.174 130.75 312.601 131.716C312.028 132.682 311.741 133.753 311.741 134.93C311.741 136.092 312.028 137.156 312.601 138.122C313.174 139.088 313.944 139.865 314.91 140.454C315.876 141.027 316.947 141.314 318.124 141.314Z" fill="#4BAF4F" fill-opacity="0.74"/>
<path d="M265.346 27.3893C264.385 27.3893 263.49 27.1903 262.659 26.7924C261.837 26.3944 261.132 25.8493 260.544 25.1571C259.964 24.4563 259.549 23.6516 259.298 22.7432L261.517 22.1462C261.673 22.7605 261.95 23.2926 262.348 23.7425C262.746 24.1838 263.209 24.5298 263.736 24.7807C264.273 25.023 264.831 25.1441 265.41 25.1441C266.172 25.1441 266.855 24.9624 267.461 24.5991C268.075 24.227 268.56 23.7382 268.915 23.1325C269.269 22.5182 269.447 21.8477 269.447 21.1209C269.447 20.3682 269.261 19.689 268.889 19.0834C268.525 18.4691 268.036 17.9845 267.422 17.6298C266.808 17.2751 266.137 17.0977 265.41 17.0977C264.589 17.0977 263.883 17.2707 263.295 17.6168C262.715 17.9543 262.257 18.3696 261.919 18.8627L259.869 18.084L260.44 8.31152H270.472V10.5048H261.556L262.581 9.54445L262.101 17.3702L261.595 16.7084C262.114 16.1546 262.733 15.7264 263.451 15.4235C264.178 15.1207 264.917 14.9693 265.67 14.9693C266.829 14.9693 267.868 15.2418 268.785 15.7869C269.702 16.3233 270.429 17.0588 270.965 17.9932C271.502 18.919 271.77 19.9615 271.77 21.1209C271.77 22.2716 271.476 23.3229 270.887 24.2746C270.299 25.2177 269.516 25.9747 268.538 26.5458C267.569 27.1082 266.505 27.3893 265.346 27.3893ZM286.442 27.3893C285.257 27.3893 284.18 27.1038 283.211 26.5328C282.25 25.9618 281.484 25.1831 280.913 24.1967C280.351 23.2017 280.07 22.0813 280.07 20.8354V14.6189C280.07 13.3124 280.351 12.1574 280.913 11.1537C281.484 10.1414 282.263 9.3541 283.25 8.79171C284.245 8.22068 285.378 7.93516 286.65 7.93516C287.679 7.93516 288.635 8.14713 289.518 8.57109C290.409 8.98639 291.158 9.5877 291.763 10.375L290.037 11.9065C289.665 11.3614 289.181 10.9288 288.584 10.6087C287.987 10.2885 287.342 10.1285 286.65 10.1285C285.828 10.1285 285.097 10.3275 284.456 10.7255C283.825 11.1148 283.327 11.6339 282.964 12.2828C282.601 12.9231 282.419 13.6152 282.419 14.3593V18.11L281.913 17.539C282.458 16.7603 283.15 16.1373 283.989 15.6701C284.829 15.2029 285.737 14.9693 286.715 14.9693C287.874 14.9693 288.912 15.2418 289.829 15.7869C290.755 16.332 291.482 17.0717 292.01 18.0062C292.546 18.9319 292.814 19.9745 292.814 21.1339C292.814 22.2933 292.525 23.3445 291.945 24.2876C291.365 25.2307 290.591 25.9834 289.622 26.5458C288.661 27.1082 287.602 27.3893 286.442 27.3893ZM286.442 25.1571C287.186 25.1571 287.865 24.9797 288.48 24.625C289.094 24.2616 289.579 23.7771 289.933 23.1715C290.297 22.5572 290.478 21.878 290.478 21.1339C290.478 20.3898 290.297 19.7106 289.933 19.0963C289.579 18.482 289.094 17.9975 288.48 17.6428C287.874 17.2794 287.199 17.0977 286.455 17.0977C285.711 17.0977 285.032 17.2794 284.418 17.6428C283.812 17.9975 283.327 18.482 282.964 19.0963C282.601 19.7106 282.419 20.3898 282.419 21.1339C282.419 21.8693 282.596 22.5442 282.951 23.1585C283.314 23.7641 283.799 24.2486 284.405 24.612C285.019 24.9754 285.698 25.1571 286.442 25.1571ZM302.498 27.3893C301.287 27.3893 300.206 27.1168 299.254 26.5717C298.311 26.018 297.562 25.2696 297.009 24.3265C296.464 23.3748 296.191 22.2933 296.191 21.082V14.2295C296.191 13.0183 296.464 11.9367 297.009 10.985C297.562 10.0333 298.311 9.28488 299.254 8.7398C300.206 8.19472 301.287 7.92218 302.498 7.92218C303.71 7.92218 304.791 8.19472 305.743 8.7398C306.695 9.28488 307.443 10.0333 307.988 10.985C308.533 11.9367 308.806 13.0183 308.806 14.2295V21.082C308.806 22.2933 308.533 23.3748 307.988 24.3265C307.443 25.2696 306.695 26.018 305.743 26.5717C304.791 27.1168 303.71 27.3893 302.498 27.3893ZM302.498 25.1701C303.234 25.1701 303.9 24.9927 304.497 24.638C305.094 24.2832 305.57 23.8074 305.925 23.2104C306.279 22.6047 306.457 21.9385 306.457 21.2118V14.0868C306.457 13.3514 306.279 12.6851 305.925 12.0882C305.57 11.4912 305.094 11.0153 304.497 10.6606C303.9 10.3058 303.234 10.1285 302.498 10.1285C301.772 10.1285 301.105 10.3058 300.5 10.6606C299.903 11.0153 299.427 11.4912 299.072 12.0882C298.718 12.6851 298.54 13.3514 298.54 14.0868V21.2118C298.54 21.9385 298.718 22.6047 299.072 23.2104C299.427 23.8074 299.903 24.2832 300.5 24.638C301.105 24.9927 301.772 25.1701 302.498 25.1701ZM313.425 27L320.148 10.5308H311.66V8.31152H322.627V10.5308L315.917 27H313.425ZM337.25 27.3893C336.039 27.3893 334.958 27.1168 334.006 26.5717C333.063 26.018 332.314 25.2696 331.761 24.3265C331.216 23.3748 330.943 22.2933 330.943 21.082V14.2295C330.943 13.0183 331.216 11.9367 331.761 10.985C332.314 10.0333 333.063 9.28488 334.006 8.7398C334.958 8.19472 336.039 7.92218 337.25 7.92218C338.462 7.92218 339.543 8.19472 340.495 8.7398C341.447 9.28488 342.195 10.0333 342.74 10.985C343.285 11.9367 343.558 13.0183 343.558 14.2295V21.082C343.558 22.2933 343.285 23.3748 342.74 24.3265C342.195 25.2696 341.447 26.018 340.495 26.5717C339.543 27.1168 338.462 27.3893 337.25 27.3893ZM337.25 25.1701C337.986 25.1701 338.652 24.9927 339.249 24.638C339.846 24.2832 340.322 23.8074 340.677 23.2104C341.031 22.6047 341.209 21.9385 341.209 21.2118V14.0868C341.209 13.3514 341.031 12.6851 340.677 12.0882C340.322 11.4912 339.846 11.0153 339.249 10.6606C338.652 10.3058 337.986 10.1285 337.25 10.1285C336.524 10.1285 335.857 10.3058 335.252 10.6606C334.655 11.0153 334.179 11.4912 333.824 12.0882C333.469 12.6851 333.292 13.3514 333.292 14.0868V21.2118C333.292 21.9385 333.469 22.6047 333.824 23.2104C334.179 23.8074 334.655 24.2832 335.252 24.638C335.857 24.9927 336.524 25.1701 337.25 25.1701ZM353.498 27.3893C352.287 27.3893 351.206 27.1168 350.254 26.5717C349.311 26.018 348.562 25.2696 348.009 24.3265C347.464 23.3748 347.191 22.2933 347.191 21.082V14.2295C347.191 13.0183 347.464 11.9367 348.009 10.985C348.562 10.0333 349.311 9.28488 350.254 8.7398C351.206 8.19472 352.287 7.92218 353.498 7.92218C354.71 7.92218 355.791 8.19472 356.743 8.7398C357.695 9.28488 358.443 10.0333 358.988 10.985C359.533 11.9367 359.806 13.0183 359.806 14.2295V21.082C359.806 22.2933 359.533 23.3748 358.988 24.3265C358.443 25.2696 357.695 26.018 356.743 26.5717C355.791 27.1168 354.71 27.3893 353.498 27.3893ZM353.498 25.1701C354.234 25.1701 354.9 24.9927 355.497 24.638C356.094 24.2832 356.57 23.8074 356.925 23.2104C357.279 22.6047 357.457 21.9385 357.457 21.2118V14.0868C357.457 13.3514 357.279 12.6851 356.925 12.0882C356.57 11.4912 356.094 11.0153 355.497 10.6606C354.9 10.3058 354.234 10.1285 353.498 10.1285C352.772 10.1285 352.105 10.3058 351.5 10.6606C350.903 11.0153 350.427 11.4912 350.072 12.0882C349.717 12.6851 349.54 13.3514 349.54 14.0868V21.2118C349.54 21.9385 349.717 22.6047 350.072 23.2104C350.427 23.8074 350.903 24.2832 351.5 24.638C352.105 24.9927 352.772 25.1701 353.498 25.1701Z" fill="#4BAF4F" fill-opacity="0.92"/>
<path d="M10.1489 178.142V146.735L3.11475 151.017V144.97L10.1489 140.765H15.6776V178.142H10.1489ZM36.6177 178.92C34.697 178.92 32.906 178.531 31.2448 177.752C29.6009 176.956 28.1906 175.866 27.0139 174.482C25.8372 173.08 24.998 171.471 24.4962 169.654L29.7134 168.252C30.0075 169.36 30.5094 170.32 31.2188 171.133C31.9456 171.947 32.7935 172.578 33.7625 173.028C34.7316 173.461 35.7352 173.677 36.7735 173.677C38.1405 173.677 39.3777 173.348 40.4852 172.691C41.61 172.033 42.4925 171.151 43.1327 170.043C43.7903 168.936 44.1191 167.716 44.1191 166.383C44.1191 165.016 43.7816 163.779 43.1068 162.672C42.4492 161.564 41.5581 160.69 40.4333 160.05C39.3258 159.393 38.1059 159.064 36.7735 159.064C35.2507 159.064 33.9615 159.367 32.906 159.972C31.8504 160.578 31.0285 161.279 30.4402 162.075L25.7161 160.414L26.8582 140.765H47.0262V145.878H29.6355L31.8418 143.827L30.9333 158.545L29.8691 157.169C30.8555 156.183 32.0321 155.43 33.3992 154.911C34.7662 154.392 36.1246 154.132 37.4743 154.132C39.793 154.132 41.8609 154.669 43.6778 155.741C45.5121 156.814 46.957 158.276 48.0125 160.128C49.0681 161.962 49.5958 164.047 49.5958 166.383C49.5958 168.702 48.9988 170.813 47.8049 172.717C46.6109 174.603 45.0275 176.108 43.0549 177.233C41.0822 178.358 38.9365 178.92 36.6177 178.92ZM60.4719 178.142L56.838 174.508L90.6071 140.765L94.2409 144.424L60.4719 178.142ZM86.4541 178.92C84.741 178.92 83.1749 178.505 81.756 177.674C80.3544 176.826 79.2296 175.702 78.3817 174.3C77.5338 172.881 77.1098 171.306 77.1098 169.576C77.1098 167.88 77.5424 166.323 78.4076 164.904C79.2729 163.485 80.4149 162.352 81.8339 161.504C83.2528 160.656 84.7929 160.232 86.4541 160.232C88.1672 160.232 89.7332 160.656 91.1521 161.504C92.5711 162.334 93.6959 163.459 94.5265 164.878C95.3744 166.28 95.7983 167.846 95.7983 169.576C95.7983 171.306 95.3744 172.881 94.5265 174.3C93.6959 175.702 92.5711 176.826 91.1521 177.674C89.7332 178.505 88.1672 178.92 86.4541 178.92ZM86.4541 174.222C87.302 174.222 88.072 174.015 88.7642 173.599C89.4736 173.167 90.036 172.596 90.4513 171.886C90.8839 171.177 91.1002 170.407 91.1002 169.576C91.1002 168.745 90.8839 167.975 90.4513 167.266C90.036 166.556 89.4736 165.994 88.7642 165.579C88.072 165.146 87.302 164.93 86.4541 164.93C85.6235 164.93 84.8534 165.146 84.144 165.579C83.4518 165.994 82.8894 166.556 82.4568 167.266C82.0415 167.975 81.8339 168.745 81.8339 169.576C81.8339 170.407 82.0415 171.177 82.4568 171.886C82.8894 172.596 83.4518 173.167 84.144 173.599C84.8534 174.015 85.6235 174.222 86.4541 174.222ZM64.6249 158.674C62.9118 158.674 61.3458 158.259 59.9268 157.429C58.5079 156.581 57.3745 155.456 56.5266 154.054C55.696 152.635 55.2807 151.061 55.2807 149.33C55.2807 147.634 55.7133 146.077 56.5785 144.658C57.4437 143.239 58.5857 142.106 60.0047 141.258C61.4236 140.41 62.9637 139.986 64.6249 139.986C66.338 139.986 67.8954 140.41 69.297 141.258C70.716 142.088 71.8494 143.213 72.6973 144.632C73.5452 146.034 73.9691 147.6 73.9691 149.33C73.9691 151.061 73.5452 152.635 72.6973 154.054C71.8494 155.456 70.716 156.581 69.297 157.429C67.8954 158.259 66.338 158.674 64.6249 158.674ZM64.6249 153.976C65.4555 153.976 66.2255 153.769 66.935 153.353C67.6445 152.921 68.2068 152.35 68.6221 151.64C69.0548 150.931 69.2711 150.161 69.2711 149.33C69.2711 148.5 69.0548 147.73 68.6221 147.02C68.2068 146.311 67.6445 145.748 66.935 145.333C66.2255 144.9 65.4555 144.684 64.6249 144.684C63.7943 144.684 63.0243 144.9 62.3148 145.333C61.6226 145.748 61.0602 146.311 60.6276 147.02C60.195 147.73 59.9787 148.5 59.9787 149.33C59.9787 150.161 60.195 150.931 60.6276 151.64C61.0602 152.35 61.6226 152.921 62.3148 153.353C63.007 153.769 63.777 153.976 64.6249 153.976Z" fill="#4BAF4F"/>
</svg>
