<svg width="229" height="229" viewBox="0 0 229 229" fill="none" xmlns="http://www.w3.org/2000/svg">
<g clip-path="url(#clip0_1_451)">
<path d="M229 0H0V229H229V0Z" fill="white"/>
<path d="M86.8625 15.7932H78.9659V23.6898H86.8625V15.7932Z" fill="black"/>
<path d="M94.759 15.7932H86.8624V23.6898H94.759V15.7932Z" fill="black"/>
<path d="M118.448 15.7932H110.552V23.6898H118.448V15.7932Z" fill="black"/>
<path d="M86.8625 23.6897H78.9659V31.5862H86.8625V23.6897Z" fill="black"/>
<path d="M110.552 23.6897H102.655V31.5862H110.552V23.6897Z" fill="black"/>
<path d="M134.241 23.6897H126.345V31.5862H134.241V23.6897Z" fill="black"/>
<path d="M150.034 23.6897H142.138V31.5862H150.034V23.6897Z" fill="black"/>
<path d="M86.8625 31.5864H78.9659V39.483H86.8625V31.5864Z" fill="black"/>
<path d="M110.552 31.5864H102.655V39.483H110.552V31.5864Z" fill="black"/>
<path d="M118.448 31.5864H110.552V39.483H118.448V31.5864Z" fill="black"/>
<path d="M126.345 31.5864H118.448V39.483H126.345V31.5864Z" fill="black"/>
<path d="M142.138 31.5864H134.241V39.483H142.138V31.5864Z" fill="black"/>
<path d="M150.034 31.5864H142.138V39.483H150.034V31.5864Z" fill="black"/>
<path d="M102.655 39.4829H94.7589V47.3795H102.655V39.4829Z" fill="black"/>
<path d="M126.345 39.4829H118.448V47.3795H126.345V39.4829Z" fill="black"/>
<path d="M150.034 39.4829H142.138V47.3795H150.034V39.4829Z" fill="black"/>
<path d="M86.8625 47.3794H78.9659V55.2759H86.8625V47.3794Z" fill="black"/>
<path d="M102.655 47.3794H94.7589V55.2759H102.655V47.3794Z" fill="black"/>
<path d="M110.552 47.3794H102.655V55.2759H110.552V47.3794Z" fill="black"/>
<path d="M118.448 47.3794H110.552V55.2759H118.448V47.3794Z" fill="black"/>
<path d="M150.034 47.3794H142.138V55.2759H150.034V47.3794Z" fill="black"/>
<path d="M94.759 55.2759H86.8624V63.1724H94.759V55.2759Z" fill="black"/>
<path d="M118.448 55.2759H110.552V63.1724H118.448V55.2759Z" fill="black"/>
<path d="M134.241 55.2759H126.345V63.1724H134.241V55.2759Z" fill="black"/>
<path d="M150.034 55.2759H142.138V63.1724H150.034V55.2759Z" fill="black"/>
<path d="M86.8625 63.1726H78.9659V71.0692H86.8625V63.1726Z" fill="black"/>
<path d="M102.655 63.1726H94.7589V71.0692H102.655V63.1726Z" fill="black"/>
<path d="M118.448 63.1726H110.552V71.0692H118.448V63.1726Z" fill="black"/>
<path d="M134.241 63.1726H126.345V71.0692H134.241V63.1726Z" fill="black"/>
<path d="M150.034 63.1726H142.138V71.0692H150.034V63.1726Z" fill="black"/>
<path d="M94.759 71.0691H86.8624V78.9656H94.759V71.0691Z" fill="black"/>
<path d="M126.345 71.0691H118.448V78.9656H126.345V71.0691Z" fill="black"/>
<path d="M142.138 71.0691H134.241V78.9656H142.138V71.0691Z" fill="black"/>
<path d="M23.6896 78.9656H15.7931V86.8621H23.6896V78.9656Z" fill="black"/>
<path d="M47.3793 78.9656H39.4828V86.8621H47.3793V78.9656Z" fill="black"/>
<path d="M55.2756 78.9656H47.379V86.8621H55.2756V78.9656Z" fill="black"/>
<path d="M63.1721 78.9656H55.2755V86.8621H63.1721V78.9656Z" fill="black"/>
<path d="M71.0685 78.9656H63.172V86.8621H71.0685V78.9656Z" fill="black"/>
<path d="M78.965 78.9656H71.0685V86.8621H78.965V78.9656Z" fill="black"/>
<path d="M86.8625 78.9656H78.9659V86.8621H86.8625V78.9656Z" fill="black"/>
<path d="M94.759 78.9656H86.8624V86.8621H94.759V78.9656Z" fill="black"/>
<path d="M102.655 78.9656H94.7589V86.8621H102.655V78.9656Z" fill="black"/>
<path d="M110.552 78.9656H102.655V86.8621H110.552V78.9656Z" fill="black"/>
<path d="M118.448 78.9656H110.552V86.8621H118.448V78.9656Z" fill="black"/>
<path d="M126.345 78.9656H118.448V86.8621H126.345V78.9656Z" fill="black"/>
<path d="M134.241 78.9656H126.345V86.8621H134.241V78.9656Z" fill="black"/>
<path d="M142.138 78.9656H134.241V86.8621H142.138V78.9656Z" fill="black"/>
<path d="M150.034 78.9656H142.138V86.8621H150.034V78.9656Z" fill="black"/>
<path d="M157.931 78.9656H150.034V86.8621H157.931V78.9656Z" fill="black"/>
<path d="M181.62 78.9656H173.724V86.8621H181.62V78.9656Z" fill="black"/>
<path d="M197.414 78.9656H189.518V86.8621H197.414V78.9656Z" fill="black"/>
<path d="M205.311 78.9656H197.414V86.8621H205.311V78.9656Z" fill="black"/>
<path d="M213.207 78.9656H205.311V86.8621H213.207V78.9656Z" fill="black"/>
<path d="M23.6896 86.8621H15.7931V94.7586H23.6896V86.8621Z" fill="black"/>
<path d="M31.5862 86.8621H23.6897V94.7586H31.5862V86.8621Z" fill="black"/>
<path d="M39.4827 86.8621H31.5862V94.7586H39.4827V86.8621Z" fill="black"/>
<path d="M63.1721 86.8623H55.2755V94.7589H63.1721V86.8623Z" fill="black"/>
<path d="M118.448 86.8621H110.552V94.7586H118.448V86.8621Z" fill="black"/>
<path d="M126.345 86.8621H118.448V94.7586H126.345V86.8621Z" fill="black"/>
<path d="M142.138 86.8621H134.241V94.7586H142.138V86.8621Z" fill="black"/>
<path d="M181.62 86.8623H173.724V94.7589H181.62V86.8623Z" fill="black"/>
<path d="M189.517 86.8623H181.62V94.7589H189.517V86.8623Z" fill="black"/>
<path d="M197.414 86.8623H189.518V94.7589H197.414V86.8623Z" fill="black"/>
<path d="M205.311 86.8623H197.414V94.7589H205.311V86.8623Z" fill="black"/>
<path d="M31.5862 94.7588H23.6897V102.655H31.5862V94.7588Z" fill="black"/>
<path d="M39.4827 94.7588H31.5862V102.655H39.4827V94.7588Z" fill="black"/>
<path d="M55.2756 94.7588H47.379V102.655H55.2756V94.7588Z" fill="black"/>
<path d="M71.0685 94.7588H63.172V102.655H71.0685V94.7588Z" fill="black"/>
<path d="M78.965 94.7588H71.0685V102.655H78.965V94.7588Z" fill="black"/>
<path d="M86.8625 94.7588H78.9659V102.655H86.8625V94.7588Z" fill="black"/>
<path d="M110.552 94.7588H102.655V102.655H110.552V94.7588Z" fill="black"/>
<path d="M118.448 94.7588H110.552V102.655H118.448V94.7588Z" fill="black"/>
<path d="M126.345 94.7588H118.448V102.655H126.345V94.7588Z" fill="black"/>
<path d="M142.138 94.7588H134.241V102.655H142.138V94.7588Z" fill="black"/>
<path d="M150.034 94.7588H142.138V102.655H150.034V94.7588Z" fill="black"/>
<path d="M181.62 94.7588H173.724V102.655H181.62V94.7588Z" fill="black"/>
<path d="M189.517 94.7588H181.62V102.655H189.517V94.7588Z" fill="black"/>
<path d="M213.207 94.7588H205.311V102.655H213.207V94.7588Z" fill="black"/>
<path d="M23.6896 102.655H15.7931V110.552H23.6896V102.655Z" fill="black"/>
<path d="M31.5862 102.655H23.6897V110.552H31.5862V102.655Z" fill="black"/>
<path d="M39.4827 102.655H31.5862V110.552H39.4827V102.655Z" fill="black"/>
<path d="M55.2756 102.655H47.379V110.552H55.2756V102.655Z" fill="black"/>
<path d="M102.655 102.655H94.7589V110.552H102.655V102.655Z" fill="black"/>
<path d="M110.552 102.655H102.655V110.552H110.552V102.655Z" fill="black"/>
<path d="M134.241 102.655H126.345V110.552H134.241V102.655Z" fill="black"/>
<path d="M150.034 102.655H142.138V110.552H150.034V102.655Z" fill="black"/>
<path d="M157.931 102.655H150.034V110.552H157.931V102.655Z" fill="black"/>
<path d="M173.724 102.655H165.827V110.552H173.724V102.655Z" fill="black"/>
<path d="M189.517 102.655H181.62V110.552H189.517V102.655Z" fill="black"/>
<path d="M197.414 102.655H189.518V110.552H197.414V102.655Z" fill="black"/>
<path d="M205.311 102.655H197.414V110.552H205.311V102.655Z" fill="black"/>
<path d="M213.207 102.655H205.311V110.552H213.207V102.655Z" fill="black"/>
<path d="M23.6896 110.552H15.7931V118.448H23.6896V110.552Z" fill="black"/>
<path d="M31.5862 110.552H23.6897V118.448H31.5862V110.552Z" fill="black"/>
<path d="M47.3793 110.552H39.4828V118.448H47.3793V110.552Z" fill="black"/>
<path d="M63.1721 110.552H55.2755V118.448H63.1721V110.552Z" fill="black"/>
<path d="M71.0685 110.552H63.172V118.448H71.0685V110.552Z" fill="black"/>
<path d="M94.759 110.552H86.8624V118.448H94.759V110.552Z" fill="black"/>
<path d="M102.655 110.552H94.7589V118.448H102.655V110.552Z" fill="black"/>
<path d="M118.448 110.552H110.552V118.448H118.448V110.552Z" fill="black"/>
<path d="M142.138 110.552H134.241V118.448H142.138V110.552Z" fill="black"/>
<path d="M150.034 110.552H142.138V118.448H150.034V110.552Z" fill="black"/>
<path d="M165.828 110.552H157.931V118.448H165.828V110.552Z" fill="black"/>
<path d="M213.207 110.552H205.311V118.448H213.207V110.552Z" fill="black"/>
<path d="M23.6896 118.448H15.7931V126.345H23.6896V118.448Z" fill="black"/>
<path d="M39.4827 118.448H31.5862V126.345H39.4827V118.448Z" fill="black"/>
<path d="M47.3793 118.448H39.4828V126.345H47.3793V118.448Z" fill="black"/>
<path d="M63.1721 118.448H55.2755V126.345H63.1721V118.448Z" fill="black"/>
<path d="M78.965 118.448H71.0685V126.345H78.965V118.448Z" fill="black"/>
<path d="M86.8625 118.448H78.9659V126.345H86.8625V118.448Z" fill="black"/>
<path d="M118.448 118.448H110.552V126.345H118.448V118.448Z" fill="black"/>
<path d="M126.345 118.448H118.448V126.345H126.345V118.448Z" fill="black"/>
<path d="M134.241 118.448H126.345V126.345H134.241V118.448Z" fill="black"/>
<path d="M142.138 118.448H134.241V126.345H142.138V118.448Z" fill="black"/>
<path d="M150.034 118.448H142.138V126.345H150.034V118.448Z" fill="black"/>
<path d="M181.62 118.448H173.724V126.345H181.62V118.448Z" fill="black"/>
<path d="M205.311 118.448H197.414V126.345H205.311V118.448Z" fill="black"/>
<path d="M23.6896 126.345H15.7931V134.242H23.6896V126.345Z" fill="black"/>
<path d="M31.5862 126.345H23.6897V134.242H31.5862V126.345Z" fill="black"/>
<path d="M39.4827 126.345H31.5862V134.242H39.4827V126.345Z" fill="black"/>
<path d="M47.3793 126.345H39.4828V134.242H47.3793V126.345Z" fill="black"/>
<path d="M63.1721 126.345H55.2755V134.242H63.1721V126.345Z" fill="black"/>
<path d="M71.0685 126.345H63.172V134.242H71.0685V126.345Z" fill="black"/>
<path d="M78.965 126.345H71.0685V134.242H78.965V126.345Z" fill="black"/>
<path d="M102.655 126.345H94.7589V134.242H102.655V126.345Z" fill="black"/>
<path d="M118.448 126.345H110.552V134.242H118.448V126.345Z" fill="black"/>
<path d="M126.345 126.345H118.448V134.242H126.345V126.345Z" fill="black"/>
<path d="M142.138 126.345H134.241V134.242H142.138V126.345Z" fill="black"/>
<path d="M150.034 126.345H142.138V134.242H150.034V126.345Z" fill="black"/>
<path d="M157.931 126.345H150.034V134.242H157.931V126.345Z" fill="black"/>
<path d="M181.62 126.345H173.724V134.242H181.62V126.345Z" fill="black"/>
<path d="M189.517 126.345H181.62V134.242H189.517V126.345Z" fill="black"/>
<path d="M197.414 126.345H189.518V134.242H197.414V126.345Z" fill="black"/>
<path d="M205.311 126.345H197.414V134.242H205.311V126.345Z" fill="black"/>
<path d="M213.207 126.345H205.311V134.242H213.207V126.345Z" fill="black"/>
<path d="M23.6896 134.241H15.7931V142.138H23.6896V134.241Z" fill="black"/>
<path d="M47.3793 134.241H39.4828V142.138H47.3793V134.241Z" fill="black"/>
<path d="M55.2756 134.241H47.379V142.138H55.2756V134.241Z" fill="black"/>
<path d="M78.965 134.241H71.0685V142.138H78.965V134.241Z" fill="black"/>
<path d="M94.759 134.241H86.8624V142.138H94.759V134.241Z" fill="black"/>
<path d="M142.138 134.241H134.241V142.138H142.138V134.241Z" fill="black"/>
<path d="M157.931 134.241H150.034V142.138H157.931V134.241Z" fill="black"/>
<path d="M165.828 134.241H157.931V142.138H165.828V134.241Z" fill="black"/>
<path d="M173.724 134.241H165.827V142.138H173.724V134.241Z" fill="black"/>
<path d="M189.517 134.241H181.62V142.138H189.517V134.241Z" fill="black"/>
<path d="M197.414 134.241H189.518V142.138H197.414V134.241Z" fill="black"/>
<path d="M213.207 134.241H205.311V142.138H213.207V134.241Z" fill="black"/>
<path d="M23.6896 142.138H15.7931V150.034H23.6896V142.138Z" fill="black"/>
<path d="M39.4827 142.138H31.5862V150.034H39.4827V142.138Z" fill="black"/>
<path d="M47.3793 142.138H39.4828V150.034H47.3793V142.138Z" fill="black"/>
<path d="M55.2756 142.138H47.379V150.034H55.2756V142.138Z" fill="black"/>
<path d="M63.1721 142.138H55.2755V150.034H63.1721V142.138Z" fill="black"/>
<path d="M71.0685 142.138H63.172V150.034H71.0685V142.138Z" fill="black"/>
<path d="M110.552 142.138H102.655V150.034H110.552V142.138Z" fill="black"/>
<path d="M126.345 142.138H118.448V150.034H126.345V142.138Z" fill="black"/>
<path d="M150.034 142.138H142.138V150.034H150.034V142.138Z" fill="black"/>
<path d="M157.931 142.138H150.034V150.034H157.931V142.138Z" fill="black"/>
<path d="M165.828 142.138H157.931V150.034H165.828V142.138Z" fill="black"/>
<path d="M173.724 142.138H165.827V150.034H173.724V142.138Z" fill="black"/>
<path d="M181.62 142.138H173.724V150.034H181.62V142.138Z" fill="black"/>
<path d="M197.414 142.138H189.518V150.034H197.414V142.138Z" fill="black"/>
<path d="M205.311 142.138H197.414V150.034H205.311V142.138Z" fill="black"/>
<path d="M86.8625 150.035H78.9659V157.931H86.8625V150.035Z" fill="black"/>
<path d="M102.655 150.035H94.7589V157.931H102.655V150.035Z" fill="black"/>
<path d="M134.241 150.035H126.345V157.931H134.241V150.035Z" fill="black"/>
<path d="M150.034 150.035H142.138V157.931H150.034V150.035Z" fill="black"/>
<path d="M181.62 150.035H173.724V157.931H181.62V150.035Z" fill="black"/>
<path d="M197.414 150.035H189.518V157.931H197.414V150.035Z" fill="black"/>
<path d="M205.311 150.035H197.414V157.931H205.311V150.035Z" fill="black"/>
<path d="M86.8625 157.931H78.9659V165.828H86.8625V157.931Z" fill="black"/>
<path d="M94.759 157.931H86.8624V165.828H94.759V157.931Z" fill="black"/>
<path d="M110.552 157.931H102.655V165.828H110.552V157.931Z" fill="black"/>
<path d="M126.345 157.931H118.448V165.828H126.345V157.931Z" fill="black"/>
<path d="M134.241 157.931H126.345V165.828H134.241V157.931Z" fill="black"/>
<path d="M150.034 157.931H142.138V165.828H150.034V157.931Z" fill="black"/>
<path d="M165.828 157.931H157.931V165.828H165.828V157.931Z" fill="black"/>
<path d="M181.62 157.931H173.724V165.828H181.62V157.931Z" fill="black"/>
<path d="M213.207 157.931H205.311V165.828H213.207V157.931Z" fill="black"/>
<path d="M86.8625 165.828H78.9659V173.724H86.8625V165.828Z" fill="black"/>
<path d="M94.759 165.828H86.8624V173.724H94.759V165.828Z" fill="black"/>
<path d="M102.655 165.828H94.7589V173.724H102.655V165.828Z" fill="black"/>
<path d="M110.552 165.828H102.655V173.724H110.552V165.828Z" fill="black"/>
<path d="M126.345 165.828H118.448V173.724H126.345V165.828Z" fill="black"/>
<path d="M134.241 165.828H126.345V173.724H134.241V165.828Z" fill="black"/>
<path d="M142.138 165.828H134.241V173.724H142.138V165.828Z" fill="black"/>
<path d="M150.034 165.828H142.138V173.724H150.034V165.828Z" fill="black"/>
<path d="M181.62 165.828H173.724V173.724H181.62V165.828Z" fill="black"/>
<path d="M86.8625 173.724H78.9659V181.621H86.8625V173.724Z" fill="black"/>
<path d="M94.759 173.724H86.8624V181.621H94.759V173.724Z" fill="black"/>
<path d="M110.552 173.724H102.655V181.621H110.552V173.724Z" fill="black"/>
<path d="M118.448 173.724H110.552V181.621H118.448V173.724Z" fill="black"/>
<path d="M134.241 173.724H126.345V181.621H134.241V173.724Z" fill="black"/>
<path d="M142.138 173.724H134.241V181.621H142.138V173.724Z" fill="black"/>
<path d="M150.034 173.724H142.138V181.621H150.034V173.724Z" fill="black"/>
<path d="M157.931 173.724H150.034V181.621H157.931V173.724Z" fill="black"/>
<path d="M165.828 173.724H157.931V181.621H165.828V173.724Z" fill="black"/>
<path d="M173.724 173.724H165.827V181.621H173.724V173.724Z" fill="black"/>
<path d="M181.62 173.724H173.724V181.621H181.62V173.724Z" fill="black"/>
<path d="M86.8625 181.621H78.9659V189.517H86.8625V181.621Z" fill="black"/>
<path d="M110.552 181.621H102.655V189.517H110.552V181.621Z" fill="black"/>
<path d="M142.138 181.621H134.241V189.517H142.138V181.621Z" fill="black"/>
<path d="M157.931 181.621H150.034V189.517H157.931V181.621Z" fill="black"/>
<path d="M165.828 181.621H157.931V189.517H165.828V181.621Z" fill="black"/>
<path d="M205.311 181.621H197.414V189.517H205.311V181.621Z" fill="black"/>
<path d="M213.207 181.621H205.311V189.517H213.207V181.621Z" fill="black"/>
<path d="M110.552 189.517H102.655V197.414H110.552V189.517Z" fill="black"/>
<path d="M118.448 189.517H110.552V197.414H118.448V189.517Z" fill="black"/>
<path d="M134.241 189.517H126.345V197.414H134.241V189.517Z" fill="black"/>
<path d="M150.034 189.517H142.138V197.414H150.034V189.517Z" fill="black"/>
<path d="M157.931 189.517H150.034V197.414H157.931V189.517Z" fill="black"/>
<path d="M181.62 189.517H173.724V197.414H181.62V189.517Z" fill="black"/>
<path d="M189.517 189.517H181.62V197.414H189.517V189.517Z" fill="black"/>
<path d="M197.414 189.517H189.518V197.414H197.414V189.517Z" fill="black"/>
<path d="M205.311 189.517H197.414V197.414H205.311V189.517Z" fill="black"/>
<path d="M213.207 189.517H205.311V197.414H213.207V189.517Z" fill="black"/>
<path d="M118.448 197.414H110.552V205.31H118.448V197.414Z" fill="black"/>
<path d="M165.828 197.414H157.931V205.31H165.828V197.414Z" fill="black"/>
<path d="M173.724 197.414H165.827V205.311H173.724V197.414Z" fill="black"/>
<path d="M181.62 197.414H173.724V205.311H181.62V197.414Z" fill="black"/>
<path d="M197.414 197.414H189.518V205.311H197.414V197.414Z" fill="black"/>
<path d="M205.311 197.414H197.414V205.311H205.311V197.414Z" fill="black"/>
<path d="M213.207 197.414H205.311V205.311H213.207V197.414Z" fill="black"/>
<path d="M86.8625 205.311H78.9659V213.207H86.8625V205.311Z" fill="black"/>
<path d="M102.655 205.311H94.7589V213.207H102.655V205.311Z" fill="black"/>
<path d="M110.552 205.311H102.655V213.207H110.552V205.311Z" fill="black"/>
<path d="M118.448 205.311H110.552V213.207H118.448V205.311Z" fill="black"/>
<path d="M142.138 205.311H134.241V213.207H142.138V205.311Z" fill="black"/>
<path d="M150.034 205.311H142.138V213.207H150.034V205.311Z" fill="black"/>
<path d="M165.828 205.311H157.931V213.207H165.828V205.311Z" fill="black"/>
<path d="M189.517 205.311H181.62V213.207H189.517V205.311Z" fill="black"/>
<path d="M213.207 205.311H205.311V213.207H213.207V205.311Z" fill="black"/>
<path d="M52.1972 15.7976H34.6648C26.1203 15.7976 18.8814 21.4429 16.567 29.1589C16.3276 29.9571 16.1408 30.7774 16.0109 31.6159C15.8677 32.5412 15.7931 33.4886 15.7931 34.4532V52.4018C15.7931 62.6936 24.2614 71.063 34.6648 71.063L43.431 71.0646L52.1972 71.0624C62.6001 71.0624 71.069 62.6931 71.069 52.4013V34.4532C71.069 24.1664 62.6007 15.7976 52.1972 15.7976ZM62.7776 52.4018C62.7776 58.1196 58.0316 62.7716 52.195 62.7716L43.431 62.7732L34.667 62.771C28.8305 62.771 24.0845 58.119 24.0845 52.4018V34.4532C24.0845 32.6672 24.5477 30.9858 25.363 29.5165C26.1479 28.1031 27.2584 26.8876 28.5955 25.9673C30.3146 24.7838 32.4079 24.089 34.6643 24.089H52.1972C58.0316 24.089 62.7776 28.7382 62.7776 34.4532V52.4018Z" fill="black"/>
<path d="M194.335 15.7976H176.803C168.258 15.7976 161.019 21.4429 158.705 29.1589C158.466 29.9571 158.279 30.7774 158.149 31.6159C158.006 32.5412 157.931 33.4886 157.931 34.4532V52.4018C157.931 62.6936 166.399 71.063 176.803 71.063L185.569 71.0646L194.335 71.0624C204.738 71.0624 213.207 62.6931 213.207 52.4013V34.4532C213.207 24.1664 204.739 15.7976 194.335 15.7976ZM204.916 52.4018C204.916 58.1196 200.17 62.7716 194.333 62.7716L185.569 62.7732L176.805 62.771C170.968 62.771 166.222 58.119 166.222 52.4018V34.4532C166.222 32.6672 166.686 30.9858 167.501 29.5165C168.286 28.1031 169.396 26.8876 170.733 25.9673C172.453 24.7838 174.546 24.089 176.802 24.089H194.335C200.17 24.089 204.916 28.7382 204.916 34.4532V52.4018Z" fill="black"/>
<path d="M52.1972 157.936H34.6648C26.1203 157.936 18.8814 163.581 16.567 171.297C16.3276 172.095 16.1408 172.915 16.0109 173.754C15.8677 174.679 15.7931 175.627 15.7931 176.591V194.54C15.7931 204.832 24.2614 213.201 34.6648 213.201L43.431 213.203L52.1972 213.2C62.6001 213.2 71.069 204.831 71.069 194.539V176.591C71.069 166.304 62.6007 157.936 52.1972 157.936ZM62.7776 194.54C62.7776 200.258 58.0316 204.91 52.195 204.91L43.431 204.911L34.667 204.909C28.8305 204.909 24.0845 200.257 24.0845 194.54V176.591C24.0845 174.805 24.5477 173.124 25.363 171.654C26.1479 170.241 27.2584 169.026 28.5955 168.105C30.3146 166.922 32.4079 166.227 34.6643 166.227H52.1972C58.0316 166.227 62.7776 170.876 62.7776 176.591V194.54Z" fill="black"/>
<path d="M38.0658 55.2761C34.491 55.2761 31.5831 52.4257 31.5831 48.9254V37.9338C31.5831 36.8403 31.8674 35.8112 32.3651 34.9108C32.8458 34.0442 33.5262 33.2994 34.3456 32.7375C35.3981 32.0131 36.6811 31.5864 38.0623 31.5864H48.8001C52.3715 31.5864 55.2794 34.4334 55.2794 37.9336V48.9251C55.2794 52.4253 52.3717 55.2758 48.8001 55.2758H43.4313L38.0658 55.2761Z" fill="black"/>
<path d="M180.203 55.2761C176.629 55.2761 173.721 52.4257 173.721 48.9254V37.9338C173.721 36.8403 174.005 35.8112 174.503 34.9108C174.983 34.0442 175.664 33.2994 176.483 32.7375C177.536 32.0131 178.819 31.5864 180.2 31.5864H190.938C194.509 31.5864 197.417 34.4334 197.417 37.9336V48.9251C197.417 52.4253 194.509 55.2758 190.938 55.2758H185.569L180.203 55.2761Z" fill="black"/>
<path d="M38.0658 197.414C34.491 197.414 31.5831 194.563 31.5831 191.063V180.072C31.5831 178.978 31.8674 177.949 32.3651 177.048C32.8458 176.182 33.5262 175.437 34.3456 174.875C35.3981 174.151 36.6811 173.724 38.0623 173.724H48.8001C52.3715 173.724 55.2794 176.571 55.2794 180.071V191.063C55.2794 194.563 52.3717 197.414 48.8001 197.414H43.4313L38.0658 197.414Z" fill="black"/>
</g>
<defs>
<clipPath id="clip0_1_451">
<rect width="229" height="229" rx="19" fill="white"/>
</clipPath>
</defs>
</svg>
